  0
SECTION
  2
HEADER
  9
$ACADVER
  1
AC1018
  9
$ACADMAINTVER
 70
     0
  9
$DWGCODEPAGE
  3
ANSI_1252
  9
$INSBASE
 10
0.0
 20
0.0
 30
0.0
  9
$EXTMIN
 10
1.000000000000000E+20
 20
1.000000000000000E+20
 30
1.000000000000000E+20
  9
$EXTMAX
 10
-1.000000000000000E+20
 20
-1.000000000000000E+20
 30
-1.000000000000000E+20
  9
$LIMMIN
 10
0.0
 20
0.0
  9
$LIMMAX
 10
12.0
 20
9.0
  9
$ORTHOMODE
 70
     0
  9
$REGENMODE
 70
     1
  9
$FILLMODE
 70
     1
  9
$QTEXTMODE
 70
     0
  9
$MIRRTEXT
 70
     1
  9
$LTSCALE
 40
1.0
  9
$ATTMODE
 70
     1
  9
$TEXTSIZE
 40
0.2
  9
$TRACEWID
 40
0.05
  9
$TEXTSTYLE
  7
Standard
  9
$CLAYER
  8
0
  9
$CELTYPE
  6
ByLayer
  9
$CECOLOR
 62
   256
  9
$CELTSCALE
 40
1.0
  9
$DISPSILH
 70
     0
  9
$DIMSCALE
 40
1.0
  9
$DIMASZ
 40
0.18
  9
$DIMEXO
 40
0.0625
  9
$DIMDLI
 40
0.38
  9
$DIMRND
 40
0.0
  9
$DIMDLE
 40
0.0
  9
$DIMEXE
 40
0.18
  9
$DIMTP
 40
0.0
  9
$DIMTM
 40
0.0
  9
$DIMTXT
 40
0.18
  9
$DIMCEN
 40
0.09
  9
$DIMTSZ
 40
0.0
  9
$DIMTOL
 70
     0
  9
$DIMLIM
 70
     0
  9
$DIMTIH
 70
     1
  9
$DIMTOH
 70
     1
  9
$DIMSE1
 70
     0
  9
$DIMSE2
 70
     0
  9
$DIMTAD
 70
     0
  9
$DIMZIN
 70
     0
  9
$DIMBLK
  1

  9
$DIMASO
 70
     1
  9
$DIMSHO
 70
     1
  9
$DIMPOST
  1

  9
$DIMAPOST
  1

  9
$DIMALT
 70
     0
  9
$DIMALTD
 70
     2
  9
$DIMALTF
 40
25.4
  9
$DIMLFAC
 40
1.0
  9
$DIMTOFL
 70
     0
  9
$DIMTVP
 40
0.0
  9
$DIMTIX
 70
     0
  9
$DIMSOXD
 70
     0
  9
$DIMSAH
 70
     0
  9
$DIMBLK1
  1

  9
$DIMBLK2
  1

  9
$DIMSTYLE
  2
Standard
  9
$DIMCLRD
 70
     0
  9
$DIMCLRE
 70
     0
  9
$DIMCLRT
 70
     0
  9
$DIMTFAC
 40
1.0
  9
$DIMGAP
 40
0.09
  9
$DIMJUST
 70
     0
  9
$DIMSD1
 70
     0
  9
$DIMSD2
 70
     0
  9
$DIMTOLJ
 70
     1
  9
$DIMTZIN
 70
     0
  9
$DIMALTZ
 70
     0
  9
$DIMALTTZ
 70
     0
  9
$DIMUPT
 70
     0
  9
$DIMDEC
 70
     4
  9
$DIMTDEC
 70
     4
  9
$DIMALTU
 70
     2
  9
$DIMALTTD
 70
     2
  9
$DIMTXSTY
  7
Standard
  9
$DIMAUNIT
 70
     0
  9
$DIMADEC
 70
     0
  9
$DIMALTRND
 40
0.0
  9
$DIMAZIN
 70
     0
  9
$DIMDSEP
 70
    46
  9
$DIMATFIT
 70
     3
  9
$DIMFRAC
 70
     0
  9
$DIMLDRBLK
  1

  9
$DIMLUNIT
 70
     2
  9
$DIMLWD
 70
    -2
  9
$DIMLWE
 70
    -2
  9
$DIMTMOVE
 70
     0
  9
$LUNITS
 70
     2
  9
$LUPREC
 70
     4
  9
$SKETCHINC
 40
0.1
  9
$FILLETRAD
 40
0.5
  9
$AUNITS
 70
     0
  9
$AUPREC
 70
     0
  9
$MENU
  1
.
  9
$ELEVATION
 40
0.0
  9
$PELEVATION
 40
0.0
  9
$THICKNESS
 40
0.0
  9
$LIMCHECK
 70
     0
  9
$CHAMFERA
 40
0.5
  9
$CHAMFERB
 40
0.5
  9
$CHAMFERC
 40
1.0
  9
$CHAMFERD
 40
0.0
  9
$SKPOLY
 70
     0
  9
$TDCREATE
 40
2460137.713210857
  9
$TDUCREATE
 40
2460137.504877523
  9
$TDUPDATE
 40
2460137.713210868
  9
$TDUUPDATE
 40
2460137.504877535
  9
$TDINDWG
 40
0.0000000116
  9
$TDUSRTIMER
 40
0.0000000116
  9
$USRTIMER
 70
     1
  9
$ANGBASE
 50
0.0
  9
$ANGDIR
 70
     0
  9
$PDMODE
 70
     0
  9
$PDSIZE
 40
0.0
  9
$PLINEWID
 40
0.0
  9
$SPLFRAME
 70
     0
  9
$SPLINETYPE
 70
     6
  9
$SPLINESEGS
 70
     8
  9
$HANDSEED
  5
92
  9
$SURFTAB1
 70
     6
  9
$SURFTAB2
 70
     6
  9
$SURFTYPE
 70
     6
  9
$SURFU
 70
     6
  9
$SURFV
 70
     6
  9
$UCSBASE
  2

  9
$UCSNAME
  2

  9
$UCSORG
 10
0.0
 20
0.0
 30
0.0
  9
$UCSXDIR
 10
1.0
 20
0.0
 30
0.0
  9
$UCSYDIR
 10
0.0
 20
1.0
 30
0.0
  9
$UCSORTHOREF
  2

  9
$UCSORTHOVIEW
 70
     0
  9
$UCSORGTOP
 10
0.0
 20
0.0
 30
0.0
  9
$UCSORGBOTTOM
 10
0.0
 20
0.0
 30
0.0
  9
$UCSORGLEFT
 10
0.0
 20
0.0
 30
0.0
  9
$UCSORGRIGHT
 10
0.0
 20
0.0
 30
0.0
  9
$UCSORGFRONT
 10
0.0
 20
0.0
 30
0.0
  9
$UCSORGBACK
 10
0.0
 20
0.0
 30
0.0
  9
$PUCSBASE
  2

  9
$PUCSNAME
  2

  9
$PUCSORG
 10
0.0
 20
0.0
 30
0.0
  9
$PUCSXDIR
 10
1.0
 20
0.0
 30
0.0
  9
$PUCSYDIR
 10
0.0
 20
1.0
 30
0.0
  9
$PUCSORTHOREF
  2

  9
$PUCSORTHOVIEW
 70
     0
  9
$PUCSORGTOP
 10
0.0
 20
0.0
 30
0.0
  9
$PUCSORGBOTTOM
 10
0.0
 20
0.0
 30
0.0
  9
$PUCSORGLEFT
 10
0.0
 20
0.0
 30
0.0
  9
$PUCSORGRIGHT
 10
0.0
 20
0.0
 30
0.0
  9
$PUCSORGFRONT
 10
0.0
 20
0.0
 30
0.0
  9
$PUCSORGBACK
 10
0.0
 20
0.0
 30
0.0
  9
$USERI1
 70
     0
  9
$USERI2
 70
     0
  9
$USERI3
 70
     0
  9
$USERI4
 70
     0
  9
$USERI5
 70
     0
  9
$USERR1
 40
0.0
  9
$USERR2
 40
0.0
  9
$USERR3
 40
0.0
  9
$USERR4
 40
0.0
  9
$USERR5
 40
0.0
  9
$WORLDVIEW
 70
     1
  9
$SHADEDGE
 70
     3
  9
$SHADEDIF
 70
    70
  9
$TILEMODE
 70
     1
  9
$MAXACTVP
 70
    64
  9
$PINSBASE
 10
0.0
 20
0.0
 30
0.0
  9
$PLIMCHECK
 70
     0
  9
$PEXTMIN
 10
1.000000000000000E+20
 20
1.000000000000000E+20
 30
1.000000000000000E+20
  9
$PEXTMAX
 10
-1.000000000000000E+20
 20
-1.000000000000000E+20
 30
-1.000000000000000E+20
  9
$PLIMMIN
 10
0.0
 20
0.0
  9
$PLIMMAX
 10
12.0
 20
9.0
  9
$UNITMODE
 70
     0
  9
$VISRETAIN
 70
     1
  9
$PLINEGEN
 70
     0
  9
$PSLTSCALE
 70
     1
  9
$TREEDEPTH
 70
  3020
  9
$CMLSTYLE
  2
Standard
  9
$CMLJUST
 70
     0
  9
$CMLSCALE
 40
1.0
  9
$PROXYGRAPHICS
 70
     1
  9
$MEASUREMENT
 70
     0
  9
$CELWEIGHT
370
    -1
  9
$ENDCAPS
280
     0
  9
$JOINSTYLE
280
     0
  9
$LWDISPLAY
290
     1
  9
$INSUNITS
 70
     1
  9
$HYPERLINKBASE
  1

  9
$STYLESHEET
  1

  9
$XEDIT
290
     1
  9
$CEPSNTYPE
380
     0
  9
$PSTYLEMODE
290
     1
  9
$FINGERPRINTGUID
  2
{7D504AF0-E528-4885-8918-0D4993A1196A}
  9
$VERSIONGUID
  2
{FAEB1C32-E019-11D5-929B-00C0DF256EC4}
  9
$EXTNAMES
290
     1
  9
$PSVPSCALE
 40
0.0
  9
$OLESTARTUP
290
     0
  9
$SORTENTS
280
   127
  9
$INDEXCTL
280
     0
  9
$HIDETEXT
280
     1
  9
$XCLIPFRAME
290
     0
  9
$HALOGAP
280
     0
  9
$OBSCOLOR
 70
   257
  9
$OBSLTYPE
280
     0
  9
$INTERSECTIONDISPLAY
280
     0
  9
$INTERSECTIONCOLOR
 70
   257
  9
$DIMASSOC
280
     2
  9
$PROJECTNAME
  1

  0
ENDSEC
  0
SECTION
  2
CLASSES
  0
CLASS
  1
ACDBDICTIONARYWDFLT
  2
AcDbDictionaryWithDefault
  3
ObjectDBX Classes
 90
        0
 91
        3
280
     0
281
     0
  0
CLASS
  1
VISUALSTYLE
  2
AcDbVisualStyle
  3
ObjectDBX Classes
 90
     4095
 91
        3
280
     0
281
     0
  0
ENDSEC
  0
SECTION
  2
TABLES
  0
TABLE
  2
VPORT
  5
8
330
0
100
AcDbSymbolTable
 70
     1
  0
VPORT
  5
29
330
8
100
AcDbSymbolTableRecord
100
AcDbViewportTableRecord
  2
*Active
 70
     0
 10
0.0
 20
0.0
 11
1.0
 21
1.0
 12
0.0
 22
0.0
 13
0.0
 23
0.0
 14
0.5
 24
0.5
 15
0.5
 25
0.5
 16
0.0
 26
0.0
 36
1.0
 17
320.0
 27
320.0
 37
0.0
 40
640.0
 41
1.0
 42
50.0
 43
0.0
 44
0.0
 50
0.0
 51
0.0
 71
     0
 72
   100
 73
     1
 74
     3
 75
     0
 76
     0
 77
     0
 78
     0
281
     0
 65
     1
110
0.0
120
0.0
130
0.0
111
1.0
121
0.0
131
0.0
112
0.0
122
1.0
132
0.0
 79
     0
146
0.0
  0
ENDTAB
  0
TABLE
  2
LTYPE
  5
5
330
0
100
AcDbSymbolTable
 70
     1
  0
LTYPE
  5
14
330
5
100
AcDbSymbolTableRecord
100
AcDbLinetypeTableRecord
  2
ByBlock
 70
     0
  3

 72
    65
 73
     0
 40
0.0
  0
LTYPE
  5
15
330
5
100
AcDbSymbolTableRecord
100
AcDbLinetypeTableRecord
  2
ByLayer
 70
     0
  3

 72
    65
 73
     0
 40
0.0
  0
LTYPE
  5
16
330
5
100
AcDbSymbolTableRecord
100
AcDbLinetypeTableRecord
  2
Continuous
 70
     0
  3
Solid line
 72
    65
 73
     0
 40
0.0
  0
ENDTAB
  0
TABLE
  2
LAYER
  5
2
330
0
100
AcDbSymbolTable
 70
     2
  0
LAYER
  5
10
330
2
100
AcDbSymbolTableRecord
100
AcDbLayerTableRecord
  2
0
 70
     0
 62
     7
  6
Continuous
370
    -3
390
F
  0
LAYER
  5
3B
330
2
100
AcDbSymbolTableRecord
100
AcDbLayerTableRecord
  2
Layer 1
 70
     0
 62
     7
  6
Continuous
370
    -3
390
F
  0
ENDTAB
  0
TABLE
  2
STYLE
  5
3
330
0
100
AcDbSymbolTable
 70
     1
  0
STYLE
  5
11
330
3
100
AcDbSymbolTableRecord
100
AcDbTextStyleTableRecord
  2
Standard
 70
     0
 40
0.0
 41
1.0
 50
0.0
 71
     0
 42
0.2
  3
txt
  4

  0
ENDTAB
  0
TABLE
  2
VIEW
  5
6
330
0
100
AcDbSymbolTable
 70
     0
  0
ENDTAB
  0
TABLE
  2
UCS
  5
7
330
0
100
AcDbSymbolTable
 70
     0
  0
ENDTAB
  0
TABLE
  2
APPID
  5
9
330
0
100
AcDbSymbolTable
 70
     1
  0
APPID
  5
12
330
9
100
AcDbSymbolTableRecord
100
AcDbRegAppTableRecord
  2
ACAD
 70
     0
  0
ENDTAB
  0
TABLE
  2
DIMSTYLE
  5
A
330
0
100
AcDbSymbolTable
 70
     1
100
AcDbDimStyleTable
  0
DIMSTYLE
105
27
330
A
100
AcDbSymbolTableRecord
100
AcDbDimStyleTableRecord
  2
Standard
 70
     0
340
11
  0
ENDTAB
  0
TABLE
  2
BLOCK_RECORD
  5
1
330
0
100
AcDbSymbolTable
 70
     2
  0
BLOCK_RECORD
  5
1F
330
1
100
AcDbSymbolTableRecord
100
AcDbBlockTableRecord
  2
*Model_Space
340
22
  0
BLOCK_RECORD
  5
1B
330
1
100
AcDbSymbolTableRecord
100
AcDbBlockTableRecord
  2
*Paper_Space
340
1E
  0
BLOCK_RECORD
  5
23
330
1
100
AcDbSymbolTableRecord
100
AcDbBlockTableRecord
  2
*Paper_Space0
340
26
  0
BLOCK_RECORD
  5
3C
330
1
100
AcDbSymbolTableRecord
100
AcDbBlockTableRecord
  2
block 2
340
0
102
{BLKREFS
331
3D
102
}
  0
ENDTAB
  0
ENDSEC
  0
SECTION
  2
BLOCKS
  0
BLOCK
  5
20
330
1F
100
AcDbEntity
  8
0
100
AcDbBlockBegin
  2
*Model_Space
 70
     0
 71
     0
 10
0.0
 20
0.0
 30
0.0
  3
*Model_Space
  1

  0
ENDBLK
  5
21
330
1F
100
AcDbEntity
  8
0
100
AcDbBlockEnd
  0
BLOCK
  5
1C
330
1B
100
AcDbEntity
 67
     1
  8
0
100
AcDbBlockBegin
  2
*Paper_Space
 70
     0
 71
     0
 10
0.0
 20
0.0
 30
0.0
  3
*Paper_Space
  1

  0
ENDBLK
  5
1D
330
1B
100
AcDbEntity
 67
     1
  8
0
100
AcDbBlockEnd
  0
BLOCK
  5
24
330
23
100
AcDbEntity
  8
0
100
AcDbBlockBegin
  2
*Paper_Space0
 70
     0
 71
     0
 10
0.0
 20
0.0
 30
0.0
  3
*Paper_Space0
  1

  0
ENDBLK
  5
25
330
23
100
AcDbEntity
  8
0
100
AcDbBlockEnd
  0
BLOCK
  5
3E
330
3C
100
AcDbEntity
  8
0
100
AcDbBlockBegin
  2
block 2
 70
     0
 71
     0
 10
0.0
 20
0.0
 30
0.0
  3
block 2
  1

  0
SPLINE
  5
40
330
3C
100
AcDbEntity
  8
Layer 1
370
     0
100
AcDbSpline
210
0.0
220
0.0
230
1.0
 70
    11
 71
     3
 72
    47
 73
    43
 74
     0
 42
0.0000000001
 43
0.0000000001
 40
0.0
 40
0.0
 40
0.0
 40
0.0
 40
1.0
 40
1.0
 40
1.0
 40
2.0
 40
2.0
 40
2.0
 40
3.0
 40
3.0
 40
3.0
 40
4.0
 40
4.0
 40
4.0
 40
5.0
 40
5.0
 40
5.0
 40
6.0
 40
6.0
 40
6.0
 40
7.0
 40
7.0
 40
7.0
 40
8.0
 40
8.0
 40
8.0
 40
9.0
 40
9.0
 40
9.0
 40
10.0
 40
10.0
 40
10.0
 40
11.0
 40
11.0
 40
11.0
 40
12.0
 40
12.0
 40
12.0
 40
13.0
 40
13.0
 40
13.0
 40
14.0
 40
14.0
 40
14.0
 40
14.0
 10
252.54296875
 20
342.240234375
 30
0.0
 10
254.841796875
 20
340.84423828125
 30
0.0
 10
259.19384765625
 20
339.3662109375
 30
0.0
 10
262.80810546875
 20
339.3662109375
 30
0.0
 10
267.2431640625
 20
339.3662109375
 30
0.0
 10
269.212890625
 20
341.17333984375
 30
0.0
 10
269.212890625
 20
343.80126953125
 30
0.0
 10
269.212890625
 20
346.51123046875
 30
0.0
 10
267.57080078125
 20
347.9072265625
 30
0.0
 10
262.64306640625
 20
349.63134765625
 30
0.0
 10
254.841796875
 20
352.34228515625
 30
0.0
 10
251.55712890625
 20
356.6123046875
 30
0.0
 10
251.63916015625
 20
361.29296875
 30
0.0
 10
251.63916015625
 20
368.3564453125
 30
0.0
 10
257.4697265625
 20
373.857421875
 30
0.0
 10
266.75
 20
373.857421875
 30
0.0
 10
271.18408203125
 20
373.857421875
 30
0.0
 10
275.0439453125
 20
372.70703125
 30
0.0
 10
277.3427734375
 20
371.47607421875
 30
0.0
 10
277.3427734375
 20
371.47607421875
 30
0.0
 10
275.373046875
 20
364.3310546875
 30
0.0
 10
275.373046875
 20
364.3310546875
 30
0.0
 10
273.64697265625
 20
365.31640625
 30
0.0
 10
270.44580078125
 20
366.63134765625
 30
0.0
 10
266.9140625
 20
366.63134765625
 30
0.0
 10
263.2998046875
 20
366.63134765625
 30
0.0
 10
261.330078125
 20
364.90625
 30
0.0
 10
261.330078125
 20
362.443359375
 30
0.0
 10
261.330078125
 20
359.89697265625
 30
0.0
 10
263.2177734375
 20
358.6650390625
 30
0.0
 10
268.31103515625
 20
356.859375
 30
0.0
 10
275.537109375
 20
354.2314453125
 30
0.0
 10
278.90283203125
 20
350.5341796875
 30
0.0
 10
278.98583984375
 20
344.6220703125
 30
0.0
 10
278.98583984375
 20
337.39599609375
 30
0.0
 10
273.31884765625
 20
332.14013671875
 30
0.0
 10
262.72607421875
 20
332.14013671875
 30
0.0
 10
257.8798828125
 20
332.14013671875
 30
0.0
 10
253.52783203125
 20
333.2900390625
 30
0.0
 10
250.57080078125
 20
334.93115234375
 30
0.0
 10
250.57080078125
 20
334.93115234375
 30
0.0
 10
252.54296875
 20
342.240234375
 30
0.0
 10
252.54296875
 20
342.240234375
 30
0.0
  0
HATCH
  5
41
330
3C
100
AcDbEntity
  8
Layer 1
 62
   188
420
  1380671
100
AcDbHatch
 10
0.0
 20
0.0
 30
0.0
210
0.0
220
0.0
230
1.0
  2
SOLID
 70
     1
 71
     0
 91
        1
 92
        1
 93
        1
 72
     4
 94
        3
 73
     0
 74
     1
 95
       47
 96
       43
 40
0.0
 40
0.0
 40
0.0
 40
0.0
 40
1.0
 40
1.0
 40
1.0
 40
2.0
 40
2.0
 40
2.0
 40
3.0
 40
3.0
 40
3.0
 40
4.0
 40
4.0
 40
4.0
 40
5.0
 40
5.0
 40
5.0
 40
6.0
 40
6.0
 40
6.0
 40
7.0
 40
7.0
 40
7.0
 40
8.0
 40
8.0
 40
8.0
 40
9.0
 40
9.0
 40
9.0
 40
10.0
 40
10.0
 40
10.0
 40
11.0
 40
11.0
 40
11.0
 40
12.0
 40
12.0
 40
12.0
 40
13.0
 40
13.0
 40
13.0
 40
14.0
 40
14.0
 40
14.0
 40
14.0
 10
252.54296875
 20
342.240234375
 10
254.841796875
 20
340.84423828125
 10
259.19384765625
 20
339.3662109375
 10
262.80810546875
 20
339.3662109375
 10
267.2431640625
 20
339.3662109375
 10
269.212890625
 20
341.17333984375
 10
269.212890625
 20
343.80126953125
 10
269.212890625
 20
346.51123046875
 10
267.57080078125
 20
347.9072265625
 10
262.64306640625
 20
349.63134765625
 10
254.841796875
 20
352.34228515625
 10
251.55712890625
 20
356.6123046875
 10
251.63916015625
 20
361.29296875
 10
251.63916015625
 20
368.3564453125
 10
257.4697265625
 20
373.857421875
 10
266.75
 20
373.857421875
 10
271.18408203125
 20
373.857421875
 10
275.0439453125
 20
372.70703125
 10
277.3427734375
 20
371.47607421875
 10
277.3427734375
 20
371.47607421875
 10
275.373046875
 20
364.3310546875
 10
275.373046875
 20
364.3310546875
 10
273.64697265625
 20
365.31640625
 10
270.44580078125
 20
366.63134765625
 10
266.9140625
 20
366.63134765625
 10
263.2998046875
 20
366.63134765625
 10
261.330078125
 20
364.90625
 10
261.330078125
 20
362.443359375
 10
261.330078125
 20
359.89697265625
 10
263.2177734375
 20
358.6650390625
 10
268.31103515625
 20
356.859375
 10
275.537109375
 20
354.2314453125
 10
278.90283203125
 20
350.5341796875
 10
278.98583984375
 20
344.6220703125
 10
278.98583984375
 20
337.39599609375
 10
273.31884765625
 20
332.14013671875
 10
262.72607421875
 20
332.14013671875
 10
257.8798828125
 20
332.14013671875
 10
253.52783203125
 20
333.2900390625
 10
250.57080078125
 20
334.93115234375
 10
250.57080078125
 20
334.93115234375
 10
252.54296875
 20
342.240234375
 10
252.54296875
 20
342.240234375
 97
        0
 75
     2
 76
     1
 98
        0
  0
SPLINE
  5
42
330
3C
100
AcDbEntity
  8
Layer 1
370
     0
100
AcDbSpline
210
0.0
220
0.0
230
1.0
 70
    11
 71
     3
 72
    17
 73
    13
 74
     0
 42
0.0000000001
 43
0.0000000001
 40
0.0
 40
0.0
 40
0.0
 40
0.0
 40
1.0
 40
1.0
 40
1.0
 40
2.0
 40
2.0
 40
2.0
 40
3.0
 40
3.0
 40
3.0
 40
4.0
 40
4.0
 40
4.0
 40
4.0
 10
295.380859375
 20
384.123046875
 30
0.0
 10
295.380859375
 20
381.083984375
 30
0.0
 10
293.1640625
 20
378.703125
 30
0.0
 10
289.6318359375
 20
378.703125
 30
0.0
 10
286.26611328125
 20
378.703125
 30
0.0
 10
284.0478515625
 20
381.083984375
 30
0.0
 10
284.0478515625
 20
384.123046875
 30
0.0
 10
284.0478515625
 20
387.244140625
 30
0.0
 10
286.34716796875
 20
389.625
 30
0.0
 10
289.71484375
 20
389.625
 30
0.0
 10
293.1640625
 20
389.625
 30
0.0
 10
295.298828125
 20
387.244140625
 30
0.0
 10
295.380859375
 20
384.123046875
 30
0.0
  0
POLYLINE
  5
43
330
3C
100
AcDbEntity
  8
Layer 1
370
     0
100
AcDb2dPolyline
 66
     1
 10
0.0
 20
0.0
 30
0.0
  0
VERTEX
  5
44
330
43
100
AcDbEntity
  8
Layer 1
370
     0
100
AcDbVertex
100
AcDb2dVertex
 10
284.6240234375
 20
372.955078125
 30
0.0
  0
VERTEX
  5
45
330
43
100
AcDbEntity
  8
Layer 1
370
     0
100
AcDbVertex
100
AcDb2dVertex
 10
294.80712890625
 20
372.955078125
 30
0.0
  0
VERTEX
  5
46
330
43
100
AcDbEntity
  8
Layer 1
370
     0
100
AcDbVertex
100
AcDb2dVertex
 10
294.80712890625
 20
332.9609375
 30
0.0
  0
VERTEX
  5
47
330
43
100
AcDbEntity
  8
Layer 1
370
     0
100
AcDbVertex
100
AcDb2dVertex
 10
284.6240234375
 20
332.9609375
 30
0.0
  0
VERTEX
  5
48
330
43
100
AcDbEntity
  8
Layer 1
370
     0
100
AcDbVertex
100
AcDb2dVertex
 10
284.6240234375
 20
372.955078125
 30
0.0
  0
SEQEND
  5
49
330
43
100
AcDbEntity
  8
Layer 1
370
     0
  0
HATCH
  5
4A
330
3C
100
AcDbEntity
  8
Layer 1
 62
   188
420
  1380671
100
AcDbHatch
 10
0.0
 20
0.0
 30
0.0
210
0.0
220
0.0
230
1.0
  2
SOLID
 70
     1
 71
     0
 91
        2
 92
        1
 93
        4
 72
     1
 10
284.6240234375
 20
372.955078125
 11
294.80712890625
 21
372.955078125
 72
     1
 10
294.80712890625
 20
372.955078125
 11
294.80712890625
 21
332.9609375
 72
     1
 10
294.80712890625
 20
332.9609375
 11
284.6240234375
 21
332.9609375
 72
     1
 10
284.6240234375
 20
332.9609375
 11
284.6240234375
 21
372.955078125
 97
        0
 92
        1
 93
        2
 72
     4
 94
        3
 73
     0
 74
     0
 95
       17
 96
       13
 40
0.0
 40
0.0
 40
0.0
 40
0.0
 40
1.0
 40
1.0
 40
1.0
 40
2.0
 40
2.0
 40
2.0
 40
3.0
 40
3.0
 40
3.0
 40
4.0
 40
4.0
 40
4.0
 40
4.0
 10
295.380859375
 20
384.123046875
 10
295.380859375
 20
381.083984375
 10
293.1640625
 20
378.703125
 10
289.6318359375
 20
378.703125
 10
286.26611328125
 20
378.703125
 10
284.0478515625
 20
381.083984375
 10
284.0478515625
 20
384.123046875
 10
284.0478515625
 20
387.244140625
 10
286.34716796875
 20
389.625
 10
289.71484375
 20
389.625
 10
293.1640625
 20
389.625
 10
295.298828125
 20
387.244140625
 10
295.380859375
 20
384.123046875
 72
     1
 10
295.380859375
 20
384.123046875
 11
295.380859375
 21
384.123046875
 97
        0
 75
     2
 76
     1
 98
        0
  0
SPLINE
  5
4B
330
3C
100
AcDbEntity
  8
Layer 1
370
     0
100
AcDbSpline
210
0.0
220
0.0
230
1.0
 70
    11
 71
     3
 72
    56
 73
    52
 74
     0
 42
0.0000000001
 43
0.0000000001
 40
0.0
 40
0.0
 40
0.0
 40
0.0
 40
1.0
 40
1.0
 40
1.0
 40
2.0
 40
2.0
 40
2.0
 40
3.0
 40
3.0
 40
3.0
 40
4.0
 40
4.0
 40
4.0
 40
5.0
 40
5.0
 40
5.0
 40
6.0
 40
6.0
 40
6.0
 40
7.0
 40
7.0
 40
7.0
 40
8.0
 40
8.0
 40
8.0
 40
9.0
 40
9.0
 40
9.0
 40
10.0
 40
10.0
 40
10.0
 40
11.0
 40
11.0
 40
11.0
 40
12.0
 40
12.0
 40
12.0
 40
13.0
 40
13.0
 40
13.0
 40
14.0
 40
14.0
 40
14.0
 40
15.0
 40
15.0
 40
15.0
 40
16.0
 40
16.0
 40
16.0
 40
17.0
 40
17.0
 40
17.0
 40
17.0
 10
339.865234375
 20
372.955078125
 30
0.0
 10
339.7001953125
 20
370.244140625
 30
0.0
 10
339.537109375
 20
366.958984375
 30
0.0
 10
339.537109375
 20
361.4580078125
 30
0.0
 10
339.537109375
 20
361.4580078125
 30
0.0
 10
339.537109375
 20
338.791015625
 30
0.0
 10
339.537109375
 20
338.791015625
 30
0.0
 10
339.537109375
 20
330.4140625
 30
0.0
 10
337.8115234375
 20
324.419921875
 30
0.0
 10
333.623046875
 20
320.64306640625
 30
0.0
 10
329.435546875
 20
316.9462890625
 30
0.0
 10
323.6875
 20
315.796875
 30
0.0
 10
318.1845703125
 20
315.796875
 30
0.0
 10
313.09326171875
 20
315.796875
 30
0.0
 10
307.67236328125
 20
316.8642578125
 30
0.0
 10
304.224609375
 20
318.9990234375
 30
0.0
 10
304.224609375
 20
318.9990234375
 30
0.0
 10
306.44140625
 20
326.63671875
 30
0.0
 10
306.44140625
 20
326.63671875
 30
0.0
 10
308.9873046875
 20
325.15771484375
 30
0.0
 10
313.25732421875
 20
323.59912109375
 30
0.0
 10
318.1025390625
 20
323.59912109375
 30
0.0
 10
324.6728515625
 20
323.59912109375
 30
0.0
 10
329.6005859375
 20
327.048828125
 30
0.0
 10
329.6005859375
 20
335.669921875
 30
0.0
 10
329.6005859375
 20
335.669921875
 30
0.0
 10
329.6005859375
 20
339.1201171875
 30
0.0
 10
329.6005859375
 20
339.1201171875
 30
0.0
 10
329.6005859375
 20
339.1201171875
 30
0.0
 10
329.435546875
 20
339.1201171875
 30
0.0
 10
329.435546875
 20
339.1201171875
 30
0.0
 10
327.1357421875
 20
335.5888671875
 30
0.0
 10
323.0302734375
 20
333.2080078125
 30
0.0
 10
317.7734375
 20
333.2080078125
 30
0.0
 10
307.83740234375
 20
333.2080078125
 30
0.0
 10
300.775390625
 20
341.4189453125
 30
0.0
 10
300.775390625
 20
352.751953125
 30
0.0
 10
300.775390625
 20
365.89208984375
 30
0.0
 10
309.3154296875
 20
373.85693359375
 30
0.0
 10
318.92333984375
 20
373.85693359375
 30
0.0
 10
325.0
 20
373.85693359375
 30
0.0
 10
328.615234375
 20
370.90087890625
 30
0.0
 10
330.5029296875
 20
367.61572265625
 30
0.0
 10
330.5029296875
 20
367.61572265625
 30
0.0
 10
330.66796875
 20
367.61572265625
 30
0.0
 10
330.66796875
 20
367.61572265625
 30
0.0
 10
330.66796875
 20
367.61572265625
 30
0.0
 10
331.078125
 20
372.955078125
 30
0.0
 10
331.078125
 20
372.955078125
 30
0.0
 10
331.078125
 20
372.955078125
 30
0.0
 10
339.865234375
 20
372.955078125
 30
0.0
 10
339.865234375
 20
372.955078125
 30
0.0
  0
SPLINE
  5
4C
330
3C
100
AcDbEntity
  8
Layer 1
370
     0
100
AcDbSpline
210
0.0
220
0.0
230
1.0
 70
    11
 71
     3
 72
    26
 73
    22
 74
     0
 42
0.0000000001
 43
0.0000000001
 40
0.0
 40
0.0
 40
0.0
 40
0.0
 40
1.0
 40
1.0
 40
1.0
 40
2.0
 40
2.0
 40
2.0
 40
3.0
 40
3.0
 40
3.0
 40
4.0
 40
4.0
 40
4.0
 40
5.0
 40
5.0
 40
5.0
 40
6.0
 40
6.0
 40
6.0
 40
7.0
 40
7.0
 40
7.0
 40
7.0
 10
329.435546875
 20
356.93994140625
 30
0.0
 10
329.435546875
 20
357.84375
 30
0.0
 10
329.353515625
 20
358.830078125
 30
0.0
 10
329.107421875
 20
359.64990234375
 30
0.0
 10
328.0390625
 20
363.345703125
 30
0.0
 10
325.1640625
 20
366.1376953125
 30
0.0
 10
320.89453125
 20
366.1376953125
 30
0.0
 10
315.228515625
 20
366.1376953125
 30
0.0
 10
311.03955078125
 20
361.2109375
 30
0.0
 10
311.03955078125
 20
353.0810546875
 30
0.0
 10
311.03955078125
 20
346.263671875
 30
0.0
 10
314.48828125
 20
340.7626953125
 30
0.0
 10
320.8125
 20
340.7626953125
 30
0.0
 10
324.58984375
 20
340.7626953125
 30
0.0
 10
327.8740234375
 20
343.22607421875
 30
0.0
 10
329.025390625
 20
346.83984375
 30
0.0
 10
329.271484375
 20
347.90673828125
 30
0.0
 10
329.435546875
 20
349.3017578125
 30
0.0
 10
329.435546875
 20
350.4521484375
 30
0.0
 10
329.435546875
 20
350.4521484375
 30
0.0
 10
329.435546875
 20
356.93994140625
 30
0.0
 10
329.435546875
 20
356.93994140625
 30
0.0
  0
HATCH
  5
4D
330
3C
100
AcDbEntity
  8
Layer 1
 62
   188
420
  1380671
100
AcDbHatch
 10
0.0
 20
0.0
 30
0.0
210
0.0
220
0.0
230
1.0
  2
SOLID
 70
     1
 71
     0
 91
        2
 92
        1
 93
        1
 72
     4
 94
        3
 73
     0
 74
     1
 95
       56
 96
       52
 40
0.0
 40
0.0
 40
0.0
 40
0.0
 40
1.0
 40
1.0
 40
1.0
 40
2.0
 40
2.0
 40
2.0
 40
3.0
 40
3.0
 40
3.0
 40
4.0
 40
4.0
 40
4.0
 40
5.0
 40
5.0
 40
5.0
 40
6.0
 40
6.0
 40
6.0
 40
7.0
 40
7.0
 40
7.0
 40
8.0
 40
8.0
 40
8.0
 40
9.0
 40
9.0
 40
9.0
 40
10.0
 40
10.0
 40
10.0
 40
11.0
 40
11.0
 40
11.0
 40
12.0
 40
12.0
 40
12.0
 40
13.0
 40
13.0
 40
13.0
 40
14.0
 40
14.0
 40
14.0
 40
15.0
 40
15.0
 40
15.0
 40
16.0
 40
16.0
 40
16.0
 40
17.0
 40
17.0
 40
17.0
 40
17.0
 10
339.865234375
 20
372.955078125
 10
339.7001953125
 20
370.244140625
 10
339.537109375
 20
366.958984375
 10
339.537109375
 20
361.4580078125
 10
339.537109375
 20
361.4580078125
 10
339.537109375
 20
338.791015625
 10
339.537109375
 20
338.791015625
 10
339.537109375
 20
330.4140625
 10
337.8115234375
 20
324.419921875
 10
333.623046875
 20
320.64306640625
 10
329.435546875
 20
316.9462890625
 10
323.6875
 20
315.796875
 10
318.1845703125
 20
315.796875
 10
313.09326171875
 20
315.796875
 10
307.67236328125
 20
316.8642578125
 10
304.224609375
 20
318.9990234375
 10
304.224609375
 20
318.9990234375
 10
306.44140625
 20
326.63671875
 10
306.44140625
 20
326.63671875
 10
308.9873046875
 20
325.15771484375
 10
313.25732421875
 20
323.59912109375
 10
318.1025390625
 20
323.59912109375
 10
324.6728515625
 20
323.59912109375
 10
329.6005859375
 20
327.048828125
 10
329.6005859375
 20
335.669921875
 10
329.6005859375
 20
335.669921875
 10
329.6005859375
 20
339.1201171875
 10
329.6005859375
 20
339.1201171875
 10
329.6005859375
 20
339.1201171875
 10
329.435546875
 20
339.1201171875
 10
329.435546875
 20
339.1201171875
 10
327.1357421875
 20
335.5888671875
 10
323.0302734375
 20
333.2080078125
 10
317.7734375
 20
333.2080078125
 10
307.83740234375
 20
333.2080078125
 10
300.775390625
 20
341.4189453125
 10
300.775390625
 20
352.751953125
 10
300.775390625
 20
365.89208984375
 10
309.3154296875
 20
373.85693359375
 10
318.92333984375
 20
373.85693359375
 10
325.0
 20
373.85693359375
 10
328.615234375
 20
370.90087890625
 10
330.5029296875
 20
367.61572265625
 10
330.5029296875
 20
367.61572265625
 10
330.66796875
 20
367.61572265625
 10
330.66796875
 20
367.61572265625
 10
330.66796875
 20
367.61572265625
 10
331.078125
 20
372.955078125
 10
331.078125
 20
372.955078125
 10
331.078125
 20
372.955078125
 10
339.865234375
 20
372.955078125
 10
339.865234375
 20
372.955078125
 97
        0
 92
        1
 93
        1
 72
     4
 94
        3
 73
     0
 74
     1
 95
       26
 96
       22
 40
0.0
 40
0.0
 40
0.0
 40
0.0
 40
1.0
 40
1.0
 40
1.0
 40
2.0
 40
2.0
 40
2.0
 40
3.0
 40
3.0
 40
3.0
 40
4.0
 40
4.0
 40
4.0
 40
5.0
 40
5.0
 40
5.0
 40
6.0
 40
6.0
 40
6.0
 40
7.0
 40
7.0
 40
7.0
 40
7.0
 10
329.435546875
 20
356.93994140625
 10
329.435546875
 20
357.84375
 10
329.353515625
 20
358.830078125
 10
329.107421875
 20
359.64990234375
 10
328.0390625
 20
363.345703125
 10
325.1640625
 20
366.1376953125
 10
320.89453125
 20
366.1376953125
 10
315.228515625
 20
366.1376953125
 10
311.03955078125
 20
361.2109375
 10
311.03955078125
 20
353.0810546875
 10
311.03955078125
 20
346.263671875
 10
314.48828125
 20
340.7626953125
 10
320.8125
 20
340.7626953125
 10
324.58984375
 20
340.7626953125
 10
327.8740234375
 20
343.22607421875
 10
329.025390625
 20
346.83984375
 10
329.271484375
 20
347.90673828125
 10
329.435546875
 20
349.3017578125
 10
329.435546875
 20
350.4521484375
 10
329.435546875
 20
350.4521484375
 10
329.435546875
 20
356.93994140625
 10
329.435546875
 20
356.93994140625
 97
        0
 75
     2
 76
     1
 98
        0
  0
SPLINE
  5
4E
330
3C
100
AcDbEntity
  8
Layer 1
370
     0
100
AcDbSpline
210
0.0
220
0.0
230
1.0
 70
    11
 71
     3
 72
    50
 73
    46
 74
     0
 42
0.0000000001
 43
0.0000000001
 40
0.0
 40
0.0
 40
0.0
 40
0.0
 40
1.0
 40
1.0
 40
1.0
 40
2.0
 40
2.0
 40
2.0
 40
3.0
 40
3.0
 40
3.0
 40
4.0
 40
4.0
 40
4.0
 40
5.0
 40
5.0
 40
5.0
 40
6.0
 40
6.0
 40
6.0
 40
7.0
 40
7.0
 40
7.0
 40
8.0
 40
8.0
 40
8.0
 40
9.0
 40
9.0
 40
9.0
 40
10.0
 40
10.0
 40
10.0
 40
11.0
 40
11.0
 40
11.0
 40
12.0
 40
12.0
 40
12.0
 40
13.0
 40
13.0
 40
13.0
 40
14.0
 40
14.0
 40
14.0
 40
15.0
 40
15.0
 40
15.0
 40
15.0
 10
345.5888671875
 20
361.046875
 30
0.0
 10
345.5888671875
 20
365.64599609375
 30
0.0
 10
345.505859375
 20
369.5048828125
 30
0.0
 10
345.259765625
 20
372.955078125
 30
0.0
 10
345.259765625
 20
372.955078125
 30
0.0
 10
354.12890625
 20
372.955078125
 30
0.0
 10
354.12890625
 20
372.955078125
 30
0.0
 10
354.12890625
 20
372.955078125
 30
0.0
 10
354.6220703125
 20
366.958984375
 30
0.0
 10
354.6220703125
 20
366.958984375
 30
0.0
 10
354.6220703125
 20
366.958984375
 30
0.0
 10
354.8681640625
 20
366.958984375
 30
0.0
 10
354.8681640625
 20
366.958984375
 30
0.0
 10
356.5927734375
 20
370.080078125
 30
0.0
 10
360.9443359375
 20
373.85791015625
 30
0.0
 10
367.5966796875
 20
373.85791015625
 30
0.0
 10
374.578125
 20
373.85791015625
 30
0.0
 10
381.8046875
 20
369.3408203125
 30
0.0
 10
381.8046875
 20
356.69384765625
 30
0.0
 10
381.8046875
 20
356.69384765625
 30
0.0
 10
381.8046875
 20
332.9609375
 30
0.0
 10
381.8046875
 20
332.9609375
 30
0.0
 10
381.8046875
 20
332.9609375
 30
0.0
 10
371.703125
 20
332.9609375
 30
0.0
 10
371.703125
 20
332.9609375
 30
0.0
 10
371.703125
 20
332.9609375
 30
0.0
 10
371.703125
 20
355.544921875
 30
0.0
 10
371.703125
 20
355.544921875
 30
0.0
 10
371.703125
 20
361.29296875
 30
0.0
 10
369.568359375
 20
365.64599609375
 30
0.0
 10
364.06640625
 20
365.64599609375
 30
0.0
 10
360.041015625
 20
365.64599609375
 30
0.0
 10
357.2490234375
 20
362.77099609375
 30
0.0
 10
356.1826171875
 20
359.73291015625
 30
0.0
 10
355.853515625
 20
358.830078125
 30
0.0
 10
355.771484375
 20
357.5966796875
 30
0.0
 10
355.771484375
 20
356.44677734375
 30
0.0
 10
355.771484375
 20
356.44677734375
 30
0.0
 10
355.771484375
 20
332.9609375
 30
0.0
 10
355.771484375
 20
332.9609375
 30
0.0
 10
355.771484375
 20
332.9609375
 30
0.0
 10
345.5888671875
 20
332.9609375
 30
0.0
 10
345.5888671875
 20
332.9609375
 30
0.0
 10
345.5888671875
 20
332.9609375
 30
0.0
 10
345.5888671875
 20
361.046875
 30
0.0
 10
345.5888671875
 20
361.046875
 30
0.0
  0
HATCH
  5
4F
330
3C
100
AcDbEntity
  8
Layer 1
 62
   188
420
  1380671
100
AcDbHatch
 10
0.0
 20
0.0
 30
0.0
210
0.0
220
0.0
230
1.0
  2
SOLID
 70
     1
 71
     0
 91
        1
 92
        1
 93
        1
 72
     4
 94
        3
 73
     0
 74
     1
 95
       50
 96
       46
 40
0.0
 40
0.0
 40
0.0
 40
0.0
 40
1.0
 40
1.0
 40
1.0
 40
2.0
 40
2.0
 40
2.0
 40
3.0
 40
3.0
 40
3.0
 40
4.0
 40
4.0
 40
4.0
 40
5.0
 40
5.0
 40
5.0
 40
6.0
 40
6.0
 40
6.0
 40
7.0
 40
7.0
 40
7.0
 40
8.0
 40
8.0
 40
8.0
 40
9.0
 40
9.0
 40
9.0
 40
10.0
 40
10.0
 40
10.0
 40
11.0
 40
11.0
 40
11.0
 40
12.0
 40
12.0
 40
12.0
 40
13.0
 40
13.0
 40
13.0
 40
14.0
 40
14.0
 40
14.0
 40
15.0
 40
15.0
 40
15.0
 40
15.0
 10
345.5888671875
 20
361.046875
 10
345.5888671875
 20
365.64599609375
 10
345.505859375
 20
369.5048828125
 10
345.259765625
 20
372.955078125
 10
345.259765625
 20
372.955078125
 10
354.12890625
 20
372.955078125
 10
354.12890625
 20
372.955078125
 10
354.12890625
 20
372.955078125
 10
354.6220703125
 20
366.958984375
 10
354.6220703125
 20
366.958984375
 10
354.6220703125
 20
366.958984375
 10
354.8681640625
 20
366.958984375
 10
354.8681640625
 20
366.958984375
 10
356.5927734375
 20
370.080078125
 10
360.9443359375
 20
373.85791015625
 10
367.5966796875
 20
373.85791015625
 10
374.578125
 20
373.85791015625
 10
381.8046875
 20
369.3408203125
 10
381.8046875
 20
356.69384765625
 10
381.8046875
 20
356.69384765625
 10
381.8046875
 20
332.9609375
 10
381.8046875
 20
332.9609375
 10
381.8046875
 20
332.9609375
 10
371.703125
 20
332.9609375
 10
371.703125
 20
332.9609375
 10
371.703125
 20
332.9609375
 10
371.703125
 20
355.544921875
 10
371.703125
 20
355.544921875
 10
371.703125
 20
361.29296875
 10
369.568359375
 20
365.64599609375
 10
364.06640625
 20
365.64599609375
 10
360.041015625
 20
365.64599609375
 10
357.2490234375
 20
362.77099609375
 10
356.1826171875
 20
359.73291015625
 10
355.853515625
 20
358.830078125
 10
355.771484375
 20
357.5966796875
 10
355.771484375
 20
356.44677734375
 10
355.771484375
 20
356.44677734375
 10
355.771484375
 20
332.9609375
 10
355.771484375
 20
332.9609375
 10
355.771484375
 20
332.9609375
 10
345.5888671875
 20
332.9609375
 10
345.5888671875
 20
332.9609375
 10
345.5888671875
 20
332.9609375
 10
345.5888671875
 20
361.046875
 10
345.5888671875
 20
361.046875
 97
        0
 75
     2
 76
     1
 98
        0
  0
SPLINE
  5
50
330
3C
100
AcDbEntity
  8
Layer 1
370
     0
100
AcDbSpline
210
0.0
220
0.0
230
1.0
 70
    11
 71
     3
 72
    47
 73
    43
 74
     0
 42
0.0000000001
 43
0.0000000001
 40
0.0
 40
0.0
 40
0.0
 40
0.0
 40
1.0
 40
1.0
 40
1.0
 40
2.0
 40
2.0
 40
2.0
 40
3.0
 40
3.0
 40
3.0
 40
4.0
 40
4.0
 40
4.0
 40
5.0
 40
5.0
 40
5.0
 40
6.0
 40
6.0
 40
6.0
 40
7.0
 40
7.0
 40
7.0
 40
8.0
 40
8.0
 40
8.0
 40
9.0
 40
9.0
 40
9.0
 40
10.0
 40
10.0
 40
10.0
 40
11.0
 40
11.0
 40
11.0
 40
12.0
 40
12.0
 40
12.0
 40
13.0
 40
13.0
 40
13.0
 40
14.0
 40
14.0
 40
14.0
 40
14.0
 10
413.072265625
 20
332.9609375
 30
0.0
 10
413.072265625
 20
332.9609375
 30
0.0
 10
412.4150390625
 20
337.39599609375
 30
0.0
 10
412.4150390625
 20
337.39599609375
 30
0.0
 10
412.4150390625
 20
337.39599609375
 30
0.0
 10
412.169921875
 20
337.39599609375
 30
0.0
 10
412.169921875
 20
337.39599609375
 30
0.0
 10
409.705078125
 20
334.27587890625
 30
0.0
 10
405.5166015625
 20
332.05810546875
 30
0.0
 10
400.34375
 20
332.05810546875
 30
0.0
 10
392.294921875
 20
332.05810546875
 30
0.0
 10
387.779296875
 20
337.8876953125
 30
0.0
 10
387.779296875
 20
343.9658203125
 30
0.0
 10
387.779296875
 20
354.06689453125
 30
0.0
 10
396.73046875
 20
359.15771484375
 30
0.0
 10
411.5126953125
 20
359.07470703125
 30
0.0
 10
411.5126953125
 20
359.07470703125
 30
0.0
 10
411.5126953125
 20
359.73291015625
 30
0.0
 10
411.5126953125
 20
359.73291015625
 30
0.0
 10
411.5126953125
 20
362.35986328125
 30
0.0
 10
410.4443359375
 20
366.712890625
 30
0.0
 10
403.3818359375
 20
366.712890625
 30
0.0
 10
399.4404296875
 20
366.712890625
 30
0.0
 10
395.333984375
 20
365.48095703125
 30
0.0
 10
392.6240234375
 20
363.755859375
 30
0.0
 10
392.6240234375
 20
363.755859375
 30
0.0
 10
390.654296875
 20
370.3271484375
 30
0.0
 10
390.654296875
 20
370.3271484375
 30
0.0
 10
393.609375
 20
372.1328125
 30
0.0
 10
398.783203125
 20
373.85791015625
 30
0.0
 10
405.1064453125
 20
373.85791015625
 30
0.0
 10
417.91796875
 20
373.85791015625
 30
0.0
 10
421.61328125
 20
365.72802734375
 30
0.0
 10
421.61328125
 20
357.02294921875
 30
0.0
 10
421.61328125
 20
357.02294921875
 30
0.0
 10
421.61328125
 20
342.56884765625
 30
0.0
 10
421.61328125
 20
342.56884765625
 30
0.0
 10
421.61328125
 20
338.955078125
 30
0.0
 10
421.77734375
 20
335.4248046875
 30
0.0
 10
422.1884765625
 20
332.9609375
 30
0.0
 10
422.1884765625
 20
332.9609375
 30
0.0
 10
413.072265625
 20
332.9609375
 30
0.0
 10
413.072265625
 20
332.9609375
 30
0.0
  0
SPLINE
  5
51
330
3C
100
AcDbEntity
  8
Layer 1
370
     0
100
AcDbSpline
210
0.0
220
0.0
230
1.0
 70
    11
 71
     3
 72
    20
 73
    16
 74
     0
 42
0.0000000001
 43
0.0000000001
 40
0.0
 40
0.0
 40
0.0
 40
0.0
 40
1.0
 40
1.0
 40
1.0
 40
2.0
 40
2.0
 40
2.0
 40
3.0
 40
3.0
 40
3.0
 40
4.0
 40
4.0
 40
4.0
 40
5.0
 40
5.0
 40
5.0
 40
5.0
 10
411.7578125
 20
352.5048828125
 30
0.0
 10
404.6142578125
 20
352.669921875
 30
0.0
 10
397.7978515625
 20
351.10986328125
 30
0.0
 10
397.7978515625
 20
345.03369140625
 30
0.0
 10
397.7978515625
 20
341.08984375
 30
0.0
 10
400.34375
 20
339.28369140625
 30
0.0
 10
403.5458984375
 20
339.28369140625
 30
0.0
 10
407.5703125
 20
339.28369140625
 30
0.0
 10
410.52734375
 20
341.9111328125
 30
0.0
 10
411.4296875
 20
344.787109375
 30
0.0
 10
411.6767578125
 20
345.52587890625
 30
0.0
 10
411.7578125
 20
346.345703125
 30
0.0
 10
411.7578125
 20
347.0048828125
 30
0.0
 10
411.7578125
 20
347.0048828125
 30
0.0
 10
411.7578125
 20
352.5048828125
 30
0.0
 10
411.7578125
 20
352.5048828125
 30
0.0
  0
HATCH
  5
52
330
3C
100
AcDbEntity
  8
Layer 1
 62
   188
420
  1380671
100
AcDbHatch
 10
0.0
 20
0.0
 30
0.0
210
0.0
220
0.0
230
1.0
  2
SOLID
 70
     1
 71
     0
 91
        2
 92
        1
 93
        1
 72
     4
 94
        3
 73
     0
 74
     1
 95
       47
 96
       43
 40
0.0
 40
0.0
 40
0.0
 40
0.0
 40
1.0
 40
1.0
 40
1.0
 40
2.0
 40
2.0
 40
2.0
 40
3.0
 40
3.0
 40
3.0
 40
4.0
 40
4.0
 40
4.0
 40
5.0
 40
5.0
 40
5.0
 40
6.0
 40
6.0
 40
6.0
 40
7.0
 40
7.0
 40
7.0
 40
8.0
 40
8.0
 40
8.0
 40
9.0
 40
9.0
 40
9.0
 40
10.0
 40
10.0
 40
10.0
 40
11.0
 40
11.0
 40
11.0
 40
12.0
 40
12.0
 40
12.0
 40
13.0
 40
13.0
 40
13.0
 40
14.0
 40
14.0
 40
14.0
 40
14.0
 10
413.072265625
 20
332.9609375
 10
413.072265625
 20
332.9609375
 10
412.4150390625
 20
337.39599609375
 10
412.4150390625
 20
337.39599609375
 10
412.4150390625
 20
337.39599609375
 10
412.169921875
 20
337.39599609375
 10
412.169921875
 20
337.39599609375
 10
409.705078125
 20
334.27587890625
 10
405.5166015625
 20
332.05810546875
 10
400.34375
 20
332.05810546875
 10
392.294921875
 20
332.05810546875
 10
387.779296875
 20
337.8876953125
 10
387.779296875
 20
343.9658203125
 10
387.779296875
 20
354.06689453125
 10
396.73046875
 20
359.15771484375
 10
411.5126953125
 20
359.07470703125
 10
411.5126953125
 20
359.07470703125
 10
411.5126953125
 20
359.73291015625
 10
411.5126953125
 20
359.73291015625
 10
411.5126953125
 20
362.35986328125
 10
410.4443359375
 20
366.712890625
 10
403.3818359375
 20
366.712890625
 10
399.4404296875
 20
366.712890625
 10
395.333984375
 20
365.48095703125
 10
392.6240234375
 20
363.755859375
 10
392.6240234375
 20
363.755859375
 10
390.654296875
 20
370.3271484375
 10
390.654296875
 20
370.3271484375
 10
393.609375
 20
372.1328125
 10
398.783203125
 20
373.85791015625
 10
405.1064453125
 20
373.85791015625
 10
417.91796875
 20
373.85791015625
 10
421.61328125
 20
365.72802734375
 10
421.61328125
 20
357.02294921875
 10
421.61328125
 20
357.02294921875
 10
421.61328125
 20
342.56884765625
 10
421.61328125
 20
342.56884765625
 10
421.61328125
 20
338.955078125
 10
421.77734375
 20
335.4248046875
 10
422.1884765625
 20
332.9609375
 10
422.1884765625
 20
332.9609375
 10
413.072265625
 20
332.9609375
 10
413.072265625
 20
332.9609375
 97
        0
 92
        1
 93
        1
 72
     4
 94
        3
 73
     0
 74
     1
 95
       20
 96
       16
 40
0.0
 40
0.0
 40
0.0
 40
0.0
 40
1.0
 40
1.0
 40
1.0
 40
2.0
 40
2.0
 40
2.0
 40
3.0
 40
3.0
 40
3.0
 40
4.0
 40
4.0
 40
4.0
 40
5.0
 40
5.0
 40
5.0
 40
5.0
 10
411.7578125
 20
352.5048828125
 10
404.6142578125
 20
352.669921875
 10
397.7978515625
 20
351.10986328125
 10
397.7978515625
 20
345.03369140625
 10
397.7978515625
 20
341.08984375
 10
400.34375
 20
339.28369140625
 10
403.5458984375
 20
339.28369140625
 10
407.5703125
 20
339.28369140625
 10
410.52734375
 20
341.9111328125
 10
411.4296875
 20
344.787109375
 10
411.6767578125
 20
345.52587890625
 10
411.7578125
 20
346.345703125
 10
411.7578125
 20
347.0048828125
 10
411.7578125
 20
347.0048828125
 10
411.7578125
 20
352.5048828125
 10
411.7578125
 20
352.5048828125
 97
        0
 75
     2
 76
     1
 98
        0
  0
POLYLINE
  5
53
330
3C
100
AcDbEntity
  8
Layer 1
370
     0
100
AcDb2dPolyline
 66
     1
 10
0.0
 20
0.0
 30
0.0
  0
VERTEX
  5
54
330
53
100
AcDbEntity
  8
Layer 1
370
     0
100
AcDbVertex
100
AcDb2dVertex
 10
429.466796875
 20
391.26806640625
 30
0.0
  0
VERTEX
  5
55
330
53
100
AcDbEntity
  8
Layer 1
370
     0
100
AcDbVertex
100
AcDb2dVertex
 10
439.650390625
 20
391.26806640625
 30
0.0
  0
VERTEX
  5
56
330
53
100
AcDbEntity
  8
Layer 1
370
     0
100
AcDbVertex
100
AcDb2dVertex
 10
439.650390625
 20
332.9609375
 30
0.0
  0
VERTEX
  5
57
330
53
100
AcDbEntity
  8
Layer 1
370
     0
100
AcDbVertex
100
AcDb2dVertex
 10
429.466796875
 20
332.9609375
 30
0.0
  0
VERTEX
  5
58
330
53
100
AcDbEntity
  8
Layer 1
370
     0
100
AcDbVertex
100
AcDb2dVertex
 10
429.466796875
 20
391.26806640625
 30
0.0
  0
SEQEND
  5
59
330
53
100
AcDbEntity
  8
Layer 1
370
     0
  0
HATCH
  5
5A
330
3C
100
AcDbEntity
  8
Layer 1
 62
   188
420
  1380671
100
AcDbHatch
 10
0.0
 20
0.0
 30
0.0
210
0.0
220
0.0
230
1.0
  2
SOLID
 70
     1
 71
     0
 91
        1
 92
        1
 93
        4
 72
     1
 10
429.466796875
 20
391.26806640625
 11
439.650390625
 21
391.26806640625
 72
     1
 10
439.650390625
 20
391.26806640625
 11
439.650390625
 21
332.9609375
 72
     1
 10
439.650390625
 20
332.9609375
 11
429.466796875
 21
332.9609375
 72
     1
 10
429.466796875
 20
332.9609375
 11
429.466796875
 21
391.26806640625
 97
        0
 75
     2
 76
     1
 98
        0
  0
SPLINE
  5
5B
330
3C
100
AcDbEntity
  8
Layer 1
370
     0
100
AcDbSpline
210
0.0
220
0.0
230
1.0
 70
    11
 71
     3
 72
    41
 73
    37
 74
     0
 42
0.0000000001
 43
0.0000000001
 40
0.0
 40
0.0
 40
0.0
 40
0.0
 40
1.0
 40
1.0
 40
1.0
 40
2.0
 40
2.0
 40
2.0
 40
3.0
 40
3.0
 40
3.0
 40
4.0
 40
4.0
 40
4.0
 40
5.0
 40
5.0
 40
5.0
 40
6.0
 40
6.0
 40
6.0
 40
7.0
 40
7.0
 40
7.0
 40
8.0
 40
8.0
 40
8.0
 40
9.0
 40
9.0
 40
9.0
 40
10.0
 40
10.0
 40
10.0
 40
11.0
 40
11.0
 40
11.0
 40
12.0
 40
12.0
 40
12.0
 40
12.0
 10
289.90869140625
 20
325.18896484375
 30
0.0
 10
289.90869140625
 20
325.18896484375
 30
0.0
 10
289.90869140625
 20
278.1318359375
 30
0.0
 10
289.90869140625
 20
278.1318359375
 30
0.0
 10
289.90869140625
 20
274.0263671875
 30
0.0
 10
290.07275390625
 20
269.5908203125
 30
0.0
 10
290.236328125
 20
266.8818359375
 30
0.0
 10
290.236328125
 20
266.8818359375
 30
0.0
 10
281.20361328125
 20
266.8818359375
 30
0.0
 10
281.20361328125
 20
266.8818359375
 30
0.0
 10
281.20361328125
 20
266.8818359375
 30
0.0
 10
280.79248046875
 20
273.205078125
 30
0.0
 10
280.79248046875
 20
273.205078125
 30
0.0
 10
280.79248046875
 20
273.205078125
 30
0.0
 10
280.62841796875
 20
273.205078125
 30
0.0
 10
280.62841796875
 20
273.205078125
 30
0.0
 10
278.24658203125
 20
268.7705078125
 30
0.0
 10
273.4013671875
 20
265.978515625
 30
0.0
 10
267.5703125
 20
265.978515625
 30
0.0
 10
258.04443359375
 20
265.978515625
 30
0.0
 10
250.48974609375
 20
274.1083984375
 30
0.0
 10
250.48974609375
 20
286.4267578125
 30
0.0
 10
250.40771484375
 20
299.8134765625
 30
0.0
 10
258.78466796875
 20
307.7783203125
 30
0.0
 10
268.3916015625
 20
307.7783203125
 30
0.0
 10
273.89453125
 20
307.7783203125
 30
0.0
 10
277.83544921875
 20
305.478515625
 30
0.0
 10
279.642578125
 20
302.5224609375
 30
0.0
 10
279.642578125
 20
302.5224609375
 30
0.0
 10
279.8076171875
 20
302.5224609375
 30
0.0
 10
279.8076171875
 20
302.5224609375
 30
0.0
 10
279.8076171875
 20
302.5224609375
 30
0.0
 10
279.8076171875
 20
325.18896484375
 30
0.0
 10
279.8076171875
 20
325.18896484375
 30
0.0
 10
279.8076171875
 20
325.18896484375
 30
0.0
 10
289.90869140625
 20
325.18896484375
 30
0.0
 10
289.90869140625
 20
325.18896484375
 30
0.0
  0
SPLINE
  5
5C
330
3C
100
AcDbEntity
  8
Layer 1
370
     0
100
AcDbSpline
210
0.0
220
0.0
230
1.0
 70
    11
 71
     3
 72
    26
 73
    22
 74
     0
 42
0.0000000001
 43
0.0000000001
 40
0.0
 40
0.0
 40
0.0
 40
0.0
 40
1.0
 40
1.0
 40
1.0
 40
2.0
 40
2.0
 40
2.0
 40
3.0
 40
3.0
 40
3.0
 40
4.0
 40
4.0
 40
4.0
 40
5.0
 40
5.0
 40
5.0
 40
6.0
 40
6.0
 40
6.0
 40
7.0
 40
7.0
 40
7.0
 40
7.0
 10
279.8076171875
 20
290.205078125
 30
0.0
 10
279.8076171875
 20
291.0263671875
 30
0.0
 10
279.724609375
 20
292.01171875
 30
0.0
 10
279.560546875
 20
292.83203125
 30
0.0
 10
278.65771484375
 20
296.775390625
 30
0.0
 10
275.45458984375
 20
299.978515625
 30
0.0
 10
270.85546875
 20
299.978515625
 30
0.0
 10
264.36865234375
 20
299.978515625
 30
0.0
 10
260.75439453125
 20
294.228515625
 30
0.0
 10
260.75439453125
 20
286.755859375
 30
0.0
 10
260.75439453125
 20
279.4462890625
 30
0.0
 10
264.36865234375
 20
274.1083984375
 30
0.0
 10
270.7734375
 20
274.1083984375
 30
0.0
 10
274.87939453125
 20
274.1083984375
 30
0.0
 10
278.49365234375
 20
276.900390625
 30
0.0
 10
279.478515625
 20
281.2529296875
 30
0.0
 10
279.724609375
 20
282.15625
 30
0.0
 10
279.8076171875
 20
283.1435546875
 30
0.0
 10
279.8076171875
 20
284.2109375
 30
0.0
 10
279.8076171875
 20
284.2109375
 30
0.0
 10
279.8076171875
 20
290.205078125
 30
0.0
 10
279.8076171875
 20
290.205078125
 30
0.0
  0
HATCH
  5
5D
330
3C
100
AcDbEntity
  8
Layer 1
 62
   188
420
  1380671
100
AcDbHatch
 10
0.0
 20
0.0
 30
0.0
210
0.0
220
0.0
230
1.0
  2
SOLID
 70
     1
 71
     0
 91
        2
 92
        1
 93
        1
 72
     4
 94
        3
 73
     0
 74
     1
 95
       41
 96
       37
 40
0.0
 40
0.0
 40
0.0
 40
0.0
 40
1.0
 40
1.0
 40
1.0
 40
2.0
 40
2.0
 40
2.0
 40
3.0
 40
3.0
 40
3.0
 40
4.0
 40
4.0
 40
4.0
 40
5.0
 40
5.0
 40
5.0
 40
6.0
 40
6.0
 40
6.0
 40
7.0
 40
7.0
 40
7.0
 40
8.0
 40
8.0
 40
8.0
 40
9.0
 40
9.0
 40
9.0
 40
10.0
 40
10.0
 40
10.0
 40
11.0
 40
11.0
 40
11.0
 40
12.0
 40
12.0
 40
12.0
 40
12.0
 10
289.90869140625
 20
325.18896484375
 10
289.90869140625
 20
325.18896484375
 10
289.90869140625
 20
278.1318359375
 10
289.90869140625
 20
278.1318359375
 10
289.90869140625
 20
274.0263671875
 10
290.07275390625
 20
269.5908203125
 10
290.236328125
 20
266.8818359375
 10
290.236328125
 20
266.8818359375
 10
281.20361328125
 20
266.8818359375
 10
281.20361328125
 20
266.8818359375
 10
281.20361328125
 20
266.8818359375
 10
280.79248046875
 20
273.205078125
 10
280.79248046875
 20
273.205078125
 10
280.79248046875
 20
273.205078125
 10
280.62841796875
 20
273.205078125
 10
280.62841796875
 20
273.205078125
 10
278.24658203125
 20
268.7705078125
 10
273.4013671875
 20
265.978515625
 10
267.5703125
 20
265.978515625
 10
258.04443359375
 20
265.978515625
 10
250.48974609375
 20
274.1083984375
 10
250.48974609375
 20
286.4267578125
 10
250.40771484375
 20
299.8134765625
 10
258.78466796875
 20
307.7783203125
 10
268.3916015625
 20
307.7783203125
 10
273.89453125
 20
307.7783203125
 10
277.83544921875
 20
305.478515625
 10
279.642578125
 20
302.5224609375
 10
279.642578125
 20
302.5224609375
 10
279.8076171875
 20
302.5224609375
 10
279.8076171875
 20
302.5224609375
 10
279.8076171875
 20
302.5224609375
 10
279.8076171875
 20
325.18896484375
 10
279.8076171875
 20
325.18896484375
 10
279.8076171875
 20
325.18896484375
 10
289.90869140625
 20
325.18896484375
 10
289.90869140625
 20
325.18896484375
 97
        0
 92
        1
 93
        1
 72
     4
 94
        3
 73
     0
 74
     1
 95
       26
 96
       22
 40
0.0
 40
0.0
 40
0.0
 40
0.0
 40
1.0
 40
1.0
 40
1.0
 40
2.0
 40
2.0
 40
2.0
 40
3.0
 40
3.0
 40
3.0
 40
4.0
 40
4.0
 40
4.0
 40
5.0
 40
5.0
 40
5.0
 40
6.0
 40
6.0
 40
6.0
 40
7.0
 40
7.0
 40
7.0
 40
7.0
 10
279.8076171875
 20
290.205078125
 10
279.8076171875
 20
291.0263671875
 10
279.724609375
 20
292.01171875
 10
279.560546875
 20
292.83203125
 10
278.65771484375
 20
296.775390625
 10
275.45458984375
 20
299.978515625
 10
270.85546875
 20
299.978515625
 10
264.36865234375
 20
299.978515625
 10
260.75439453125
 20
294.228515625
 10
260.75439453125
 20
286.755859375
 10
260.75439453125
 20
279.4462890625
 10
264.36865234375
 20
274.1083984375
 10
270.7734375
 20
274.1083984375
 10
274.87939453125
 20
274.1083984375
 10
278.49365234375
 20
276.900390625
 10
279.478515625
 20
281.2529296875
 10
279.724609375
 20
282.15625
 10
279.8076171875
 20
283.1435546875
 10
279.8076171875
 20
284.2109375
 10
279.8076171875
 20
284.2109375
 10
279.8076171875
 20
290.205078125
 10
279.8076171875
 20
290.205078125
 97
        0
 75
     2
 76
     1
 98
        0
  0
SPLINE
  5
5E
330
3C
100
AcDbEntity
  8
Layer 1
370
     0
100
AcDbSpline
210
0.0
220
0.0
230
1.0
 70
    11
 71
     3
 72
    53
 73
    49
 74
     0
 42
0.0000000001
 43
0.0000000001
 40
0.0
 40
0.0
 40
0.0
 40
0.0
 40
1.0
 40
1.0
 40
1.0
 40
2.0
 40
2.0
 40
2.0
 40
3.0
 40
3.0
 40
3.0
 40
4.0
 40
4.0
 40
4.0
 40
5.0
 40
5.0
 40
5.0
 40
6.0
 40
6.0
 40
6.0
 40
7.0
 40
7.0
 40
7.0
 40
8.0
 40
8.0
 40
8.0
 40
9.0
 40
9.0
 40
9.0
 40
10.0
 40
10.0
 40
10.0
 40
11.0
 40
11.0
 40
11.0
 40
12.0
 40
12.0
 40
12.0
 40
13.0
 40
13.0
 40
13.0
 40
14.0
 40
14.0
 40
14.0
 40
15.0
 40
15.0
 40
15.0
 40
16.0
 40
16.0
 40
16.0
 40
16.0
 10
307.076171875
 20
306.8759765625
 30
0.0
 10
307.076171875
 20
306.8759765625
 30
0.0
 10
314.30322265625
 20
285.44140625
 30
0.0
 10
314.30322265625
 20
285.44140625
 30
0.0
 10
315.123046875
 20
282.978515625
 30
0.0
 10
315.9453125
 20
279.9404296875
 30
0.0
 10
316.52001953125
 20
277.640625
 30
0.0
 10
316.52001953125
 20
277.640625
 30
0.0
 10
316.76611328125
 20
277.640625
 30
0.0
 10
316.76611328125
 20
277.640625
 30
0.0
 10
317.42333984375
 20
279.9404296875
 30
0.0
 10
318.1630859375
 20
282.8974609375
 30
0.0
 10
318.9013671875
 20
285.5234375
 30
0.0
 10
318.9013671875
 20
285.5234375
 30
0.0
 10
325.142578125
 20
306.8759765625
 30
0.0
 10
325.142578125
 20
306.8759765625
 30
0.0
 10
325.142578125
 20
306.8759765625
 30
0.0
 10
335.9833984375
 20
306.8759765625
 30
0.0
 10
335.9833984375
 20
306.8759765625
 30
0.0
 10
335.9833984375
 20
306.8759765625
 30
0.0
 10
325.96484375
 20
279.611328125
 30
0.0
 10
325.96484375
 20
279.611328125
 30
0.0
 10
320.4619140625
 20
264.6640625
 30
0.0
 10
316.76611328125
 20
258.01171875
 30
0.0
 10
312.0029296875
 20
253.90625
 30
0.0
 10
308.06103515625
 20
250.3759765625
 30
0.0
 10
303.9560546875
 20
249.0615234375
 30
0.0
 10
301.4091796875
 20
248.732421875
 30
0.0
 10
301.4091796875
 20
248.732421875
 30
0.0
 10
299.1103515625
 20
257.2734375
 30
0.0
 10
299.1103515625
 20
257.2734375
 30
0.0
 10
300.8349609375
 20
257.6845703125
 30
0.0
 10
302.97021484375
 20
258.587890625
 30
0.0
 10
305.0234375
 20
260.0654296875
 30
0.0
 10
306.912109375
 20
261.296875
 30
0.0
 10
309.12939453125
 20
263.6787109375
 30
0.0
 10
310.525390625
 20
266.388671875
 30
0.0
 10
310.93505859375
 20
267.12890625
 30
0.0
 10
311.18212890625
 20
267.703125
 30
0.0
 10
311.18212890625
 20
268.1962890625
 30
0.0
 10
311.18212890625
 20
268.60546875
 30
0.0
 10
311.10009765625
 20
269.181640625
 30
0.0
 10
310.607421875
 20
270.1669921875
 30
0.0
 10
310.607421875
 20
270.1669921875
 30
0.0
 10
295.990234375
 20
306.8759765625
 30
0.0
 10
295.990234375
 20
306.8759765625
 30
0.0
 10
295.990234375
 20
306.8759765625
 30
0.0
 10
307.076171875
 20
306.8759765625
 30
0.0
 10
307.076171875
 20
306.8759765625
 30
0.0
  0
HATCH
  5
5F
330
3C
100
AcDbEntity
  8
Layer 1
 62
   188
420
  1380671
100
AcDbHatch
 10
0.0
 20
0.0
 30
0.0
210
0.0
220
0.0
230
1.0
  2
SOLID
 70
     1
 71
     0
 91
        1
 92
        1
 93
        1
 72
     4
 94
        3
 73
     0
 74
     1
 95
       53
 96
       49
 40
0.0
 40
0.0
 40
0.0
 40
0.0
 40
1.0
 40
1.0
 40
1.0
 40
2.0
 40
2.0
 40
2.0
 40
3.0
 40
3.0
 40
3.0
 40
4.0
 40
4.0
 40
4.0
 40
5.0
 40
5.0
 40
5.0
 40
6.0
 40
6.0
 40
6.0
 40
7.0
 40
7.0
 40
7.0
 40
8.0
 40
8.0
 40
8.0
 40
9.0
 40
9.0
 40
9.0
 40
10.0
 40
10.0
 40
10.0
 40
11.0
 40
11.0
 40
11.0
 40
12.0
 40
12.0
 40
12.0
 40
13.0
 40
13.0
 40
13.0
 40
14.0
 40
14.0
 40
14.0
 40
15.0
 40
15.0
 40
15.0
 40
16.0
 40
16.0
 40
16.0
 40
16.0
 10
307.076171875
 20
306.8759765625
 10
307.076171875
 20
306.8759765625
 10
314.30322265625
 20
285.44140625
 10
314.30322265625
 20
285.44140625
 10
315.123046875
 20
282.978515625
 10
315.9453125
 20
279.9404296875
 10
316.52001953125
 20
277.640625
 10
316.52001953125
 20
277.640625
 10
316.76611328125
 20
277.640625
 10
316.76611328125
 20
277.640625
 10
317.42333984375
 20
279.9404296875
 10
318.1630859375
 20
282.8974609375
 10
318.9013671875
 20
285.5234375
 10
318.9013671875
 20
285.5234375
 10
325.142578125
 20
306.8759765625
 10
325.142578125
 20
306.8759765625
 10
325.142578125
 20
306.8759765625
 10
335.9833984375
 20
306.8759765625
 10
335.9833984375
 20
306.8759765625
 10
335.9833984375
 20
306.8759765625
 10
325.96484375
 20
279.611328125
 10
325.96484375
 20
279.611328125
 10
320.4619140625
 20
264.6640625
 10
316.76611328125
 20
258.01171875
 10
312.0029296875
 20
253.90625
 10
308.06103515625
 20
250.3759765625
 10
303.9560546875
 20
249.0615234375
 10
301.4091796875
 20
248.732421875
 10
301.4091796875
 20
248.732421875
 10
299.1103515625
 20
257.2734375
 10
299.1103515625
 20
257.2734375
 10
300.8349609375
 20
257.6845703125
 10
302.97021484375
 20
258.587890625
 10
305.0234375
 20
260.0654296875
 10
306.912109375
 20
261.296875
 10
309.12939453125
 20
263.6787109375
 10
310.525390625
 20
266.388671875
 10
310.93505859375
 20
267.12890625
 10
311.18212890625
 20
267.703125
 10
311.18212890625
 20
268.1962890625
 10
311.18212890625
 20
268.60546875
 10
311.10009765625
 20
269.181640625
 10
310.607421875
 20
270.1669921875
 10
310.607421875
 20
270.1669921875
 10
295.990234375
 20
306.8759765625
 10
295.990234375
 20
306.8759765625
 10
295.990234375
 20
306.8759765625
 10
307.076171875
 20
306.8759765625
 10
307.076171875
 20
306.8759765625
 97
        0
 75
     2
 76
     1
 98
        0
  0
SPLINE
  5
60
330
3C
100
AcDbEntity
  8
Layer 1
370
     0
100
AcDbSpline
210
0.0
220
0.0
230
1.0
 70
    11
 71
     3
 72
    50
 73
    46
 74
     0
 42
0.0000000001
 43
0.0000000001
 40
0.0
 40
0.0
 40
0.0
 40
0.0
 40
1.0
 40
1.0
 40
1.0
 40
2.0
 40
2.0
 40
2.0
 40
3.0
 40
3.0
 40
3.0
 40
4.0
 40
4.0
 40
4.0
 40
5.0
 40
5.0
 40
5.0
 40
6.0
 40
6.0
 40
6.0
 40
7.0
 40
7.0
 40
7.0
 40
8.0
 40
8.0
 40
8.0
 40
9.0
 40
9.0
 40
9.0
 40
10.0
 40
10.0
 40
10.0
 40
11.0
 40
11.0
 40
11.0
 40
12.0
 40
12.0
 40
12.0
 40
13.0
 40
13.0
 40
13.0
 40
14.0
 40
14.0
 40
14.0
 40
15.0
 40
15.0
 40
15.0
 40
15.0
 10
341.818359375
 20
294.9677734375
 30
0.0
 10
341.818359375
 20
299.56640625
 30
0.0
 10
341.736328125
 20
303.42578125
 30
0.0
 10
341.4892578125
 20
306.8759765625
 30
0.0
 10
341.4892578125
 20
306.8759765625
 30
0.0
 10
350.3583984375
 20
306.8759765625
 30
0.0
 10
350.3583984375
 20
306.8759765625
 30
0.0
 10
350.3583984375
 20
306.8759765625
 30
0.0
 10
350.8525390625
 20
300.880859375
 30
0.0
 10
350.8525390625
 20
300.880859375
 30
0.0
 10
350.8525390625
 20
300.880859375
 30
0.0
 10
351.0986328125
 20
300.880859375
 30
0.0
 10
351.0986328125
 20
300.880859375
 30
0.0
 10
352.8232421875
 20
304.001953125
 30
0.0
 10
357.1748046875
 20
307.7783203125
 30
0.0
 10
363.8271484375
 20
307.7783203125
 30
0.0
 10
370.8076171875
 20
307.7783203125
 30
0.0
 10
378.0341796875
 20
303.26171875
 30
0.0
 10
378.0341796875
 20
290.6142578125
 30
0.0
 10
378.0341796875
 20
290.6142578125
 30
0.0
 10
378.0341796875
 20
266.8818359375
 30
0.0
 10
378.0341796875
 20
266.8818359375
 30
0.0
 10
378.0341796875
 20
266.8818359375
 30
0.0
 10
367.93359375
 20
266.8818359375
 30
0.0
 10
367.93359375
 20
266.8818359375
 30
0.0
 10
367.93359375
 20
266.8818359375
 30
0.0
 10
367.93359375
 20
289.466796875
 30
0.0
 10
367.93359375
 20
289.466796875
 30
0.0
 10
367.93359375
 20
295.2138671875
 30
0.0
 10
365.796875
 20
299.56640625
 30
0.0
 10
360.296875
 20
299.56640625
 30
0.0
 10
356.271484375
 20
299.56640625
 30
0.0
 10
353.4794921875
 20
296.693359375
 30
0.0
 10
352.4130859375
 20
293.654296875
 30
0.0
 10
352.083984375
 20
292.75
 30
0.0
 10
352.0009765625
 20
291.51953125
 30
0.0
 10
352.0009765625
 20
290.369140625
 30
0.0
 10
352.0009765625
 20
290.369140625
 30
0.0
 10
352.0009765625
 20
266.8818359375
 30
0.0
 10
352.0009765625
 20
266.8818359375
 30
0.0
 10
352.0009765625
 20
266.8818359375
 30
0.0
 10
341.818359375
 20
266.8818359375
 30
0.0
 10
341.818359375
 20
266.8818359375
 30
0.0
 10
341.818359375
 20
266.8818359375
 30
0.0
 10
341.818359375
 20
294.9677734375
 30
0.0
 10
341.818359375
 20
294.9677734375
 30
0.0
  0
HATCH
  5
61
330
3C
100
AcDbEntity
  8
Layer 1
 62
   188
420
  1380671
100
AcDbHatch
 10
0.0
 20
0.0
 30
0.0
210
0.0
220
0.0
230
1.0
  2
SOLID
 70
     1
 71
     0
 91
        1
 92
        1
 93
        1
 72
     4
 94
        3
 73
     0
 74
     1
 95
       50
 96
       46
 40
0.0
 40
0.0
 40
0.0
 40
0.0
 40
1.0
 40
1.0
 40
1.0
 40
2.0
 40
2.0
 40
2.0
 40
3.0
 40
3.0
 40
3.0
 40
4.0
 40
4.0
 40
4.0
 40
5.0
 40
5.0
 40
5.0
 40
6.0
 40
6.0
 40
6.0
 40
7.0
 40
7.0
 40
7.0
 40
8.0
 40
8.0
 40
8.0
 40
9.0
 40
9.0
 40
9.0
 40
10.0
 40
10.0
 40
10.0
 40
11.0
 40
11.0
 40
11.0
 40
12.0
 40
12.0
 40
12.0
 40
13.0
 40
13.0
 40
13.0
 40
14.0
 40
14.0
 40
14.0
 40
15.0
 40
15.0
 40
15.0
 40
15.0
 10
341.818359375
 20
294.9677734375
 10
341.818359375
 20
299.56640625
 10
341.736328125
 20
303.42578125
 10
341.4892578125
 20
306.8759765625
 10
341.4892578125
 20
306.8759765625
 10
350.3583984375
 20
306.8759765625
 10
350.3583984375
 20
306.8759765625
 10
350.3583984375
 20
306.8759765625
 10
350.8525390625
 20
300.880859375
 10
350.8525390625
 20
300.880859375
 10
350.8525390625
 20
300.880859375
 10
351.0986328125
 20
300.880859375
 10
351.0986328125
 20
300.880859375
 10
352.8232421875
 20
304.001953125
 10
357.1748046875
 20
307.7783203125
 10
363.8271484375
 20
307.7783203125
 10
370.8076171875
 20
307.7783203125
 10
378.0341796875
 20
303.26171875
 10
378.0341796875
 20
290.6142578125
 10
378.0341796875
 20
290.6142578125
 10
378.0341796875
 20
266.8818359375
 10
378.0341796875
 20
266.8818359375
 10
378.0341796875
 20
266.8818359375
 10
367.93359375
 20
266.8818359375
 10
367.93359375
 20
266.8818359375
 10
367.93359375
 20
266.8818359375
 10
367.93359375
 20
289.466796875
 10
367.93359375
 20
289.466796875
 10
367.93359375
 20
295.2138671875
 10
365.796875
 20
299.56640625
 10
360.296875
 20
299.56640625
 10
356.271484375
 20
299.56640625
 10
353.4794921875
 20
296.693359375
 10
352.4130859375
 20
293.654296875
 10
352.083984375
 20
292.75
 10
352.0009765625
 20
291.51953125
 10
352.0009765625
 20
290.369140625
 10
352.0009765625
 20
290.369140625
 10
352.0009765625
 20
266.8818359375
 10
352.0009765625
 20
266.8818359375
 10
352.0009765625
 20
266.8818359375
 10
341.818359375
 20
266.8818359375
 10
341.818359375
 20
266.8818359375
 10
341.818359375
 20
266.8818359375
 10
341.818359375
 20
294.9677734375
 10
341.818359375
 20
294.9677734375
 97
        0
 75
     2
 76
     1
 98
        0
  0
SPLINE
  5
62
330
3C
100
AcDbEntity
  8
Layer 1
370
     0
100
AcDbSpline
210
0.0
220
0.0
230
1.0
 70
    11
 71
     3
 72
    47
 73
    43
 74
     0
 42
0.0000000001
 43
0.0000000001
 40
0.0
 40
0.0
 40
0.0
 40
0.0
 40
1.0
 40
1.0
 40
1.0
 40
2.0
 40
2.0
 40
2.0
 40
3.0
 40
3.0
 40
3.0
 40
4.0
 40
4.0
 40
4.0
 40
5.0
 40
5.0
 40
5.0
 40
6.0
 40
6.0
 40
6.0
 40
7.0
 40
7.0
 40
7.0
 40
8.0
 40
8.0
 40
8.0
 40
9.0
 40
9.0
 40
9.0
 40
10.0
 40
10.0
 40
10.0
 40
11.0
 40
11.0
 40
11.0
 40
12.0
 40
12.0
 40
12.0
 40
13.0
 40
13.0
 40
13.0
 40
14.0
 40
14.0
 40
14.0
 40
14.0
 10
409.857421875
 20
266.8818359375
 30
0.0
 10
409.857421875
 20
266.8818359375
 30
0.0
 10
409.2001953125
 20
271.3173828125
 30
0.0
 10
409.2001953125
 20
271.3173828125
 30
0.0
 10
409.2001953125
 20
271.3173828125
 30
0.0
 10
408.9541015625
 20
271.3173828125
 30
0.0
 10
408.9541015625
 20
271.3173828125
 30
0.0
 10
406.4892578125
 20
268.197265625
 30
0.0
 10
402.3017578125
 20
265.978515625
 30
0.0
 10
397.1279296875
 20
265.978515625
 30
0.0
 10
389.080078125
 20
265.978515625
 30
0.0
 10
384.564453125
 20
271.80859375
 30
0.0
 10
384.564453125
 20
277.8876953125
 30
0.0
 10
384.564453125
 20
287.9873046875
 30
0.0
 10
393.5146484375
 20
293.0791015625
 30
0.0
 10
408.296875
 20
292.9970703125
 30
0.0
 10
408.296875
 20
292.9970703125
 30
0.0
 10
408.296875
 20
293.654296875
 30
0.0
 10
408.296875
 20
293.654296875
 30
0.0
 10
408.296875
 20
296.28125
 30
0.0
 10
407.23046875
 20
300.634765625
 30
0.0
 10
400.166015625
 20
300.634765625
 30
0.0
 10
396.224609375
 20
300.634765625
 30
0.0
 10
392.119140625
 20
299.40234375
 30
0.0
 10
389.4091796875
 20
297.6787109375
 30
0.0
 10
389.4091796875
 20
297.6787109375
 30
0.0
 10
387.439453125
 20
304.2470703125
 30
0.0
 10
387.439453125
 20
304.2470703125
 30
0.0
 10
390.39453125
 20
306.0546875
 30
0.0
 10
395.5673828125
 20
307.7783203125
 30
0.0
 10
401.8916015625
 20
307.7783203125
 30
0.0
 10
414.7021484375
 20
307.7783203125
 30
0.0
 10
418.3984375
 20
299.6494140625
 30
0.0
 10
418.3984375
 20
290.943359375
 30
0.0
 10
418.3984375
 20
290.943359375
 30
0.0
 10
418.3984375
 20
276.490234375
 30
0.0
 10
418.3984375
 20
276.490234375
 30
0.0
 10
418.3984375
 20
272.8759765625
 30
0.0
 10
418.5615234375
 20
269.3466796875
 30
0.0
 10
418.97265625
 20
266.8818359375
 30
0.0
 10
418.97265625
 20
266.8818359375
 30
0.0
 10
409.857421875
 20
266.8818359375
 30
0.0
 10
409.857421875
 20
266.8818359375
 30
0.0
  0
SPLINE
  5
63
330
3C
100
AcDbEntity
  8
Layer 1
370
     0
100
AcDbSpline
210
0.0
220
0.0
230
1.0
 70
    11
 71
     3
 72
    20
 73
    16
 74
     0
 42
0.0000000001
 43
0.0000000001
 40
0.0
 40
0.0
 40
0.0
 40
0.0
 40
1.0
 40
1.0
 40
1.0
 40
2.0
 40
2.0
 40
2.0
 40
3.0
 40
3.0
 40
3.0
 40
4.0
 40
4.0
 40
4.0
 40
5.0
 40
5.0
 40
5.0
 40
5.0
 10
408.54296875
 20
286.4267578125
 30
0.0
 10
401.3984375
 20
286.5908203125
 30
0.0
 10
394.58203125
 20
285.03125
 30
0.0
 10
394.58203125
 20
278.955078125
 30
0.0
 10
394.58203125
 20
275.01171875
 30
0.0
 10
397.1279296875
 20
273.205078125
 30
0.0
 10
400.3310546875
 20
273.205078125
 30
0.0
 10
404.35546875
 20
273.205078125
 30
0.0
 10
407.3115234375
 20
275.83203125
 30
0.0
 10
408.21484375
 20
278.7080078125
 30
0.0
 10
408.4609375
 20
279.447265625
 30
0.0
 10
408.54296875
 20
280.267578125
 30
0.0
 10
408.54296875
 20
280.92578125
 30
0.0
 10
408.54296875
 20
280.92578125
 30
0.0
 10
408.54296875
 20
286.4267578125
 30
0.0
 10
408.54296875
 20
286.4267578125
 30
0.0
  0
HATCH
  5
64
330
3C
100
AcDbEntity
  8
Layer 1
 62
   188
420
  1380671
100
AcDbHatch
 10
0.0
 20
0.0
 30
0.0
210
0.0
220
0.0
230
1.0
  2
SOLID
 70
     1
 71
     0
 91
        2
 92
        1
 93
        1
 72
     4
 94
        3
 73
     0
 74
     1
 95
       47
 96
       43
 40
0.0
 40
0.0
 40
0.0
 40
0.0
 40
1.0
 40
1.0
 40
1.0
 40
2.0
 40
2.0
 40
2.0
 40
3.0
 40
3.0
 40
3.0
 40
4.0
 40
4.0
 40
4.0
 40
5.0
 40
5.0
 40
5.0
 40
6.0
 40
6.0
 40
6.0
 40
7.0
 40
7.0
 40
7.0
 40
8.0
 40
8.0
 40
8.0
 40
9.0
 40
9.0
 40
9.0
 40
10.0
 40
10.0
 40
10.0
 40
11.0
 40
11.0
 40
11.0
 40
12.0
 40
12.0
 40
12.0
 40
13.0
 40
13.0
 40
13.0
 40
14.0
 40
14.0
 40
14.0
 40
14.0
 10
409.857421875
 20
266.8818359375
 10
409.857421875
 20
266.8818359375
 10
409.2001953125
 20
271.3173828125
 10
409.2001953125
 20
271.3173828125
 10
409.2001953125
 20
271.3173828125
 10
408.9541015625
 20
271.3173828125
 10
408.9541015625
 20
271.3173828125
 10
406.4892578125
 20
268.197265625
 10
402.3017578125
 20
265.978515625
 10
397.1279296875
 20
265.978515625
 10
389.080078125
 20
265.978515625
 10
384.564453125
 20
271.80859375
 10
384.564453125
 20
277.8876953125
 10
384.564453125
 20
287.9873046875
 10
393.5146484375
 20
293.0791015625
 10
408.296875
 20
292.9970703125
 10
408.296875
 20
292.9970703125
 10
408.296875
 20
293.654296875
 10
408.296875
 20
293.654296875
 10
408.296875
 20
296.28125
 10
407.23046875
 20
300.634765625
 10
400.166015625
 20
300.634765625
 10
396.224609375
 20
300.634765625
 10
392.119140625
 20
299.40234375
 10
389.4091796875
 20
297.6787109375
 10
389.4091796875
 20
297.6787109375
 10
387.439453125
 20
304.2470703125
 10
387.439453125
 20
304.2470703125
 10
390.39453125
 20
306.0546875
 10
395.5673828125
 20
307.7783203125
 10
401.8916015625
 20
307.7783203125
 10
414.7021484375
 20
307.7783203125
 10
418.3984375
 20
299.6494140625
 10
418.3984375
 20
290.943359375
 10
418.3984375
 20
290.943359375
 10
418.3984375
 20
276.490234375
 10
418.3984375
 20
276.490234375
 10
418.3984375
 20
272.8759765625
 10
418.5615234375
 20
269.3466796875
 10
418.97265625
 20
266.8818359375
 10
418.97265625
 20
266.8818359375
 10
409.857421875
 20
266.8818359375
 10
409.857421875
 20
266.8818359375
 97
        0
 92
        1
 93
        1
 72
     4
 94
        3
 73
     0
 74
     1
 95
       20
 96
       16
 40
0.0
 40
0.0
 40
0.0
 40
0.0
 40
1.0
 40
1.0
 40
1.0
 40
2.0
 40
2.0
 40
2.0
 40
3.0
 40
3.0
 40
3.0
 40
4.0
 40
4.0
 40
4.0
 40
5.0
 40
5.0
 40
5.0
 40
5.0
 10
408.54296875
 20
286.4267578125
 10
401.3984375
 20
286.5908203125
 10
394.58203125
 20
285.03125
 10
394.58203125
 20
278.955078125
 10
394.58203125
 20
275.01171875
 10
397.1279296875
 20
273.205078125
 10
400.3310546875
 20
273.205078125
 10
404.35546875
 20
273.205078125
 10
407.3115234375
 20
275.83203125
 10
408.21484375
 20
278.7080078125
 10
408.4609375
 20
279.447265625
 10
408.54296875
 20
280.267578125
 10
408.54296875
 20
280.92578125
 10
408.54296875
 20
280.92578125
 10
408.54296875
 20
286.4267578125
 10
408.54296875
 20
286.4267578125
 97
        0
 75
     2
 76
     1
 98
        0
  0
SPLINE
  5
65
330
3C
100
AcDbEntity
  8
Layer 1
370
     0
100
AcDbSpline
210
0.0
220
0.0
230
1.0
 70
    11
 71
     3
 72
    80
 73
    76
 74
     0
 42
0.0000000001
 43
0.0000000001
 40
0.0
 40
0.0
 40
0.0
 40
0.0
 40
1.0
 40
1.0
 40
1.0
 40
2.0
 40
2.0
 40
2.0
 40
3.0
 40
3.0
 40
3.0
 40
4.0
 40
4.0
 40
4.0
 40
5.0
 40
5.0
 40
5.0
 40
6.0
 40
6.0
 40
6.0
 40
7.0
 40
7.0
 40
7.0
 40
8.0
 40
8.0
 40
8.0
 40
9.0
 40
9.0
 40
9.0
 40
10.0
 40
10.0
 40
10.0
 40
11.0
 40
11.0
 40
11.0
 40
12.0
 40
12.0
 40
12.0
 40
13.0
 40
13.0
 40
13.0
 40
14.0
 40
14.0
 40
14.0
 40
15.0
 40
15.0
 40
15.0
 40
16.0
 40
16.0
 40
16.0
 40
17.0
 40
17.0
 40
17.0
 40
18.0
 40
18.0
 40
18.0
 40
19.0
 40
19.0
 40
19.0
 40
20.0
 40
20.0
 40
20.0
 40
21.0
 40
21.0
 40
21.0
 40
22.0
 40
22.0
 40
22.0
 40
23.0
 40
23.0
 40
23.0
 40
24.0
 40
24.0
 40
24.0
 40
25.0
 40
25.0
 40
25.0
 40
25.0
 10
425.419921875
 20
294.9677734375
 30
0.0
 10
425.419921875
 20
299.56640625
 30
0.0
 10
425.337890625
 20
303.42578125
 30
0.0
 10
425.0908203125
 20
306.8759765625
 30
0.0
 10
425.0908203125
 20
306.8759765625
 30
0.0
 10
433.796875
 20
306.8759765625
 30
0.0
 10
433.796875
 20
306.8759765625
 30
0.0
 10
433.796875
 20
306.8759765625
 30
0.0
 10
434.20703125
 20
300.9638671875
 30
0.0
 10
434.20703125
 20
300.9638671875
 30
0.0
 10
434.20703125
 20
300.9638671875
 30
0.0
 10
434.4541015625
 20
300.9638671875
 30
0.0
 10
434.4541015625
 20
300.9638671875
 30
0.0
 10
436.4248046875
 20
304.083984375
 30
0.0
 10
440.0380859375
 20
307.7783203125
 30
0.0
 10
446.771484375
 20
307.7783203125
 30
0.0
 10
452.02734375
 20
307.7783203125
 30
0.0
 10
456.1337890625
 20
304.822265625
 30
0.0
 10
457.857421875
 20
300.3876953125
 30
0.0
 10
457.857421875
 20
300.3876953125
 30
0.0
 10
458.0224609375
 20
300.3876953125
 30
0.0
 10
458.0224609375
 20
300.3876953125
 30
0.0
 10
459.4189453125
 20
302.60546875
 30
0.0
 10
461.0615234375
 20
304.2470703125
 30
0.0
 10
462.94921875
 20
305.396484375
 30
0.0
 10
465.1669921875
 20
306.9580078125
 30
0.0
 10
467.712890625
 20
307.7783203125
 30
0.0
 10
470.998046875
 20
307.7783203125
 30
0.0
 10
477.6484375
 20
307.7783203125
 30
0.0
 10
484.3837890625
 20
303.26171875
 30
0.0
 10
484.3837890625
 20
290.4521484375
 30
0.0
 10
484.3837890625
 20
290.4521484375
 30
0.0
 10
484.3837890625
 20
266.8818359375
 30
0.0
 10
484.3837890625
 20
266.8818359375
 30
0.0
 10
484.3837890625
 20
266.8818359375
 30
0.0
 10
474.529296875
 20
266.8818359375
 30
0.0
 10
474.529296875
 20
266.8818359375
 30
0.0
 10
474.529296875
 20
266.8818359375
 30
0.0
 10
474.529296875
 20
288.97265625
 30
0.0
 10
474.529296875
 20
288.97265625
 30
0.0
 10
474.529296875
 20
295.625
 30
0.0
 10
472.23046875
 20
299.56640625
 30
0.0
 10
467.384765625
 20
299.56640625
 30
0.0
 10
463.9345703125
 20
299.56640625
 30
0.0
 10
461.3896484375
 20
297.1025390625
 30
0.0
 10
460.3212890625
 20
294.228515625
 30
0.0
 10
460.076171875
 20
293.2431640625
 30
0.0
 10
459.8291015625
 20
292.01171875
 30
0.0
 10
459.8291015625
 20
290.861328125
 30
0.0
 10
459.8291015625
 20
290.861328125
 30
0.0
 10
459.8291015625
 20
266.8818359375
 30
0.0
 10
459.8291015625
 20
266.8818359375
 30
0.0
 10
459.8291015625
 20
266.8818359375
 30
0.0
 10
449.974609375
 20
266.8818359375
 30
0.0
 10
449.974609375
 20
266.8818359375
 30
0.0
 10
449.974609375
 20
266.8818359375
 30
0.0
 10
449.974609375
 20
290.041015625
 30
0.0
 10
449.974609375
 20
290.041015625
 30
0.0
 10
449.974609375
 20
295.625
 30
0.0
 10
447.7568359375
 20
299.56640625
 30
0.0
 10
443.076171875
 20
299.56640625
 30
0.0
 10
439.298828125
 20
299.56640625
 30
0.0
 10
436.7529296875
 20
296.6103515625
 30
0.0
 10
435.849609375
 20
293.8173828125
 30
0.0
 10
435.439453125
 20
292.83203125
 30
0.0
 10
435.2734375
 20
291.6826171875
 30
0.0
 10
435.2734375
 20
290.5341796875
 30
0.0
 10
435.2734375
 20
290.5341796875
 30
0.0
 10
435.2734375
 20
266.8818359375
 30
0.0
 10
435.2734375
 20
266.8818359375
 30
0.0
 10
435.2734375
 20
266.8818359375
 30
0.0
 10
425.419921875
 20
266.8818359375
 30
0.0
 10
425.419921875
 20
266.8818359375
 30
0.0
 10
425.419921875
 20
266.8818359375
 30
0.0
 10
425.419921875
 20
294.9677734375
 30
0.0
 10
425.419921875
 20
294.9677734375
 30
0.0
  0
HATCH
  5
66
330
3C
100
AcDbEntity
  8
Layer 1
 62
   188
420
  1380671
100
AcDbHatch
 10
0.0
 20
0.0
 30
0.0
210
0.0
220
0.0
230
1.0
  2
SOLID
 70
     1
 71
     0
 91
        1
 92
        1
 93
        1
 72
     4
 94
        3
 73
     0
 74
     1
 95
       80
 96
       76
 40
0.0
 40
0.0
 40
0.0
 40
0.0
 40
1.0
 40
1.0
 40
1.0
 40
2.0
 40
2.0
 40
2.0
 40
3.0
 40
3.0
 40
3.0
 40
4.0
 40
4.0
 40
4.0
 40
5.0
 40
5.0
 40
5.0
 40
6.0
 40
6.0
 40
6.0
 40
7.0
 40
7.0
 40
7.0
 40
8.0
 40
8.0
 40
8.0
 40
9.0
 40
9.0
 40
9.0
 40
10.0
 40
10.0
 40
10.0
 40
11.0
 40
11.0
 40
11.0
 40
12.0
 40
12.0
 40
12.0
 40
13.0
 40
13.0
 40
13.0
 40
14.0
 40
14.0
 40
14.0
 40
15.0
 40
15.0
 40
15.0
 40
16.0
 40
16.0
 40
16.0
 40
17.0
 40
17.0
 40
17.0
 40
18.0
 40
18.0
 40
18.0
 40
19.0
 40
19.0
 40
19.0
 40
20.0
 40
20.0
 40
20.0
 40
21.0
 40
21.0
 40
21.0
 40
22.0
 40
22.0
 40
22.0
 40
23.0
 40
23.0
 40
23.0
 40
24.0
 40
24.0
 40
24.0
 40
25.0
 40
25.0
 40
25.0
 40
25.0
 10
425.419921875
 20
294.9677734375
 10
425.419921875
 20
299.56640625
 10
425.337890625
 20
303.42578125
 10
425.0908203125
 20
306.8759765625
 10
425.0908203125
 20
306.8759765625
 10
433.796875
 20
306.8759765625
 10
433.796875
 20
306.8759765625
 10
433.796875
 20
306.8759765625
 10
434.20703125
 20
300.9638671875
 10
434.20703125
 20
300.9638671875
 10
434.20703125
 20
300.9638671875
 10
434.4541015625
 20
300.9638671875
 10
434.4541015625
 20
300.9638671875
 10
436.4248046875
 20
304.083984375
 10
440.0380859375
 20
307.7783203125
 10
446.771484375
 20
307.7783203125
 10
452.02734375
 20
307.7783203125
 10
456.1337890625
 20
304.822265625
 10
457.857421875
 20
300.3876953125
 10
457.857421875
 20
300.3876953125
 10
458.0224609375
 20
300.3876953125
 10
458.0224609375
 20
300.3876953125
 10
459.4189453125
 20
302.60546875
 10
461.0615234375
 20
304.2470703125
 10
462.94921875
 20
305.396484375
 10
465.1669921875
 20
306.9580078125
 10
467.712890625
 20
307.7783203125
 10
470.998046875
 20
307.7783203125
 10
477.6484375
 20
307.7783203125
 10
484.3837890625
 20
303.26171875
 10
484.3837890625
 20
290.4521484375
 10
484.3837890625
 20
290.4521484375
 10
484.3837890625
 20
266.8818359375
 10
484.3837890625
 20
266.8818359375
 10
484.3837890625
 20
266.8818359375
 10
474.529296875
 20
266.8818359375
 10
474.529296875
 20
266.8818359375
 10
474.529296875
 20
266.8818359375
 10
474.529296875
 20
288.97265625
 10
474.529296875
 20
288.97265625
 10
474.529296875
 20
295.625
 10
472.23046875
 20
299.56640625
 10
467.384765625
 20
299.56640625
 10
463.9345703125
 20
299.56640625
 10
461.3896484375
 20
297.1025390625
 10
460.3212890625
 20
294.228515625
 10
460.076171875
 20
293.2431640625
 10
459.8291015625
 20
292.01171875
 10
459.8291015625
 20
290.861328125
 10
459.8291015625
 20
290.861328125
 10
459.8291015625
 20
266.8818359375
 10
459.8291015625
 20
266.8818359375
 10
459.8291015625
 20
266.8818359375
 10
449.974609375
 20
266.8818359375
 10
449.974609375
 20
266.8818359375
 10
449.974609375
 20
266.8818359375
 10
449.974609375
 20
290.041015625
 10
449.974609375
 20
290.041015625
 10
449.974609375
 20
295.625
 10
447.7568359375
 20
299.56640625
 10
443.076171875
 20
299.56640625
 10
439.298828125
 20
299.56640625
 10
436.7529296875
 20
296.6103515625
 10
435.849609375
 20
293.8173828125
 10
435.439453125
 20
292.83203125
 10
435.2734375
 20
291.6826171875
 10
435.2734375
 20
290.5341796875
 10
435.2734375
 20
290.5341796875
 10
435.2734375
 20
266.8818359375
 10
435.2734375
 20
266.8818359375
 10
435.2734375
 20
266.8818359375
 10
425.419921875
 20
266.8818359375
 10
425.419921875
 20
266.8818359375
 10
425.419921875
 20
266.8818359375
 10
425.419921875
 20
294.9677734375
 10
425.419921875
 20
294.9677734375
 97
        0
 75
     2
 76
     1
 98
        0
  0
SPLINE
  5
67
330
3C
100
AcDbEntity
  8
Layer 1
370
     0
100
AcDbSpline
210
0.0
220
0.0
230
1.0
 70
    11
 71
     3
 72
    17
 73
    13
 74
     0
 42
0.0000000001
 43
0.0000000001
 40
0.0
 40
0.0
 40
0.0
 40
0.0
 40
1.0
 40
1.0
 40
1.0
 40
2.0
 40
2.0
 40
2.0
 40
3.0
 40
3.0
 40
3.0
 40
4.0
 40
4.0
 40
4.0
 40
4.0
 10
501.833984375
 20
318.0439453125
 30
0.0
 10
501.833984375
 20
315.0048828125
 30
0.0
 10
499.6162109375
 20
312.623046875
 30
0.0
 10
496.0869140625
 20
312.623046875
 30
0.0
 10
492.71875
 20
312.623046875
 30
0.0
 10
490.501953125
 20
315.0048828125
 30
0.0
 10
490.501953125
 20
318.0439453125
 30
0.0
 10
490.501953125
 20
321.1640625
 30
0.0
 10
492.80078125
 20
323.5458984375
 30
0.0
 10
496.1669921875
 20
323.5458984375
 30
0.0
 10
499.6162109375
 20
323.5458984375
 30
0.0
 10
501.751953125
 20
321.1640625
 30
0.0
 10
501.833984375
 20
318.0439453125
 30
0.0
  0
POLYLINE
  5
68
330
3C
100
AcDbEntity
  8
Layer 1
370
     0
100
AcDb2dPolyline
 66
     1
 10
0.0
 20
0.0
 30
0.0
  0
VERTEX
  5
69
330
68
100
AcDbEntity
  8
Layer 1
370
     0
100
AcDbVertex
100
AcDb2dVertex
 10
491.076171875
 20
306.8759765625
 30
0.0
  0
VERTEX
  5
6A
330
68
100
AcDbEntity
  8
Layer 1
370
     0
100
AcDbVertex
100
AcDb2dVertex
 10
501.259765625
 20
306.8759765625
 30
0.0
  0
VERTEX
  5
6B
330
68
100
AcDbEntity
  8
Layer 1
370
     0
100
AcDbVertex
100
AcDb2dVertex
 10
501.259765625
 20
266.8818359375
 30
0.0
  0
VERTEX
  5
6C
330
68
100
AcDbEntity
  8
Layer 1
370
     0
100
AcDbVertex
100
AcDb2dVertex
 10
491.076171875
 20
266.8818359375
 30
0.0
  0
VERTEX
  5
6D
330
68
100
AcDbEntity
  8
Layer 1
370
     0
100
AcDbVertex
100
AcDb2dVertex
 10
491.076171875
 20
306.8759765625
 30
0.0
  0
SEQEND
  5
6E
330
68
100
AcDbEntity
  8
Layer 1
370
     0
  0
HATCH
  5
6F
330
3C
100
AcDbEntity
  8
Layer 1
 62
   188
420
  1380671
100
AcDbHatch
 10
0.0
 20
0.0
 30
0.0
210
0.0
220
0.0
230
1.0
  2
SOLID
 70
     1
 71
     0
 91
        2
 92
        1
 93
        4
 72
     1
 10
491.076171875
 20
306.8759765625
 11
501.259765625
 21
306.8759765625
 72
     1
 10
501.259765625
 20
306.8759765625
 11
501.259765625
 21
266.8818359375
 72
     1
 10
501.259765625
 20
266.8818359375
 11
491.076171875
 21
266.8818359375
 72
     1
 10
491.076171875
 20
266.8818359375
 11
491.076171875
 21
306.8759765625
 97
        0
 92
        1
 93
        2
 72
     4
 94
        3
 73
     0
 74
     0
 95
       17
 96
       13
 40
0.0
 40
0.0
 40
0.0
 40
0.0
 40
1.0
 40
1.0
 40
1.0
 40
2.0
 40
2.0
 40
2.0
 40
3.0
 40
3.0
 40
3.0
 40
4.0
 40
4.0
 40
4.0
 40
4.0
 10
501.833984375
 20
318.0439453125
 10
501.833984375
 20
315.0048828125
 10
499.6162109375
 20
312.623046875
 10
496.0869140625
 20
312.623046875
 10
492.71875
 20
312.623046875
 10
490.501953125
 20
315.0048828125
 10
490.501953125
 20
318.0439453125
 10
490.501953125
 20
321.1640625
 10
492.80078125
 20
323.5458984375
 10
496.1669921875
 20
323.5458984375
 10
499.6162109375
 20
323.5458984375
 10
501.751953125
 20
321.1640625
 10
501.833984375
 20
318.0439453125
 72
     1
 10
501.833984375
 20
318.0439453125
 11
501.833984375
 21
318.0439453125
 97
        0
 75
     2
 76
     1
 98
        0
  0
SPLINE
  5
70
330
3C
100
AcDbEntity
  8
Layer 1
370
     0
100
AcDbSpline
210
0.0
220
0.0
230
1.0
 70
    11
 71
     3
 72
    35
 73
    31
 74
     0
 42
0.0000000001
 43
0.0000000001
 40
0.0
 40
0.0
 40
0.0
 40
0.0
 40
1.0
 40
1.0
 40
1.0
 40
2.0
 40
2.0
 40
2.0
 40
3.0
 40
3.0
 40
3.0
 40
4.0
 40
4.0
 40
4.0
 40
5.0
 40
5.0
 40
5.0
 40
6.0
 40
6.0
 40
6.0
 40
7.0
 40
7.0
 40
7.0
 40
8.0
 40
8.0
 40
8.0
 40
9.0
 40
9.0
 40
9.0
 40
10.0
 40
10.0
 40
10.0
 40
10.0
 10
538.67578125
 20
268.1142578125
 30
0.0
 10
536.541015625
 20
267.12890625
 30
0.0
 10
532.3525390625
 20
266.0615234375
 30
0.0
 10
527.34375
 20
266.0615234375
 30
0.0
 10
514.861328125
 20
266.0615234375
 30
0.0
 10
506.7294921875
 20
274.0263671875
 30
0.0
 10
506.7294921875
 20
286.42578125
 30
0.0
 10
506.7294921875
 20
298.4169921875
 30
0.0
 10
514.94140625
 20
307.7783203125
 30
0.0
 10
528.9853515625
 20
307.7783203125
 30
0.0
 10
532.681640625
 20
307.7783203125
 30
0.0
 10
536.4580078125
 20
306.9580078125
 30
0.0
 10
538.7578125
 20
305.890625
 30
0.0
 10
538.7578125
 20
305.890625
 30
0.0
 10
536.9521484375
 20
298.3349609375
 30
0.0
 10
536.9521484375
 20
298.3349609375
 30
0.0
 10
535.30859375
 20
299.0732421875
 30
0.0
 10
532.9267578125
 20
299.8955078125
 30
0.0
 10
529.314453125
 20
299.8955078125
 30
0.0
 10
521.59375
 20
299.8955078125
 30
0.0
 10
516.99609375
 20
294.228515625
 30
0.0
 10
517.0771484375
 20
286.919921875
 30
0.0
 10
517.0771484375
 20
278.7080078125
 30
0.0
 10
522.4150390625
 20
274.0263671875
 30
0.0
 10
529.314453125
 20
274.0263671875
 30
0.0
 10
532.8447265625
 20
274.0263671875
 30
0.0
 10
535.30859375
 20
274.7646484375
 30
0.0
 10
537.279296875
 20
275.587890625
 30
0.0
 10
537.279296875
 20
275.587890625
 30
0.0
 10
538.67578125
 20
268.1142578125
 30
0.0
 10
538.67578125
 20
268.1142578125
 30
0.0
  0
HATCH
  5
71
330
3C
100
AcDbEntity
  8
Layer 1
 62
   188
420
  1380671
100
AcDbHatch
 10
0.0
 20
0.0
 30
0.0
210
0.0
220
0.0
230
1.0
  2
SOLID
 70
     1
 71
     0
 91
        1
 92
        1
 93
        1
 72
     4
 94
        3
 73
     0
 74
     1
 95
       35
 96
       31
 40
0.0
 40
0.0
 40
0.0
 40
0.0
 40
1.0
 40
1.0
 40
1.0
 40
2.0
 40
2.0
 40
2.0
 40
3.0
 40
3.0
 40
3.0
 40
4.0
 40
4.0
 40
4.0
 40
5.0
 40
5.0
 40
5.0
 40
6.0
 40
6.0
 40
6.0
 40
7.0
 40
7.0
 40
7.0
 40
8.0
 40
8.0
 40
8.0
 40
9.0
 40
9.0
 40
9.0
 40
10.0
 40
10.0
 40
10.0
 40
10.0
 10
538.67578125
 20
268.1142578125
 10
536.541015625
 20
267.12890625
 10
532.3525390625
 20
266.0615234375
 10
527.34375
 20
266.0615234375
 10
514.861328125
 20
266.0615234375
 10
506.7294921875
 20
274.0263671875
 10
506.7294921875
 20
286.42578125
 10
506.7294921875
 20
298.4169921875
 10
514.94140625
 20
307.7783203125
 10
528.9853515625
 20
307.7783203125
 10
532.681640625
 20
307.7783203125
 10
536.4580078125
 20
306.9580078125
 10
538.7578125
 20
305.890625
 10
538.7578125
 20
305.890625
 10
536.9521484375
 20
298.3349609375
 10
536.9521484375
 20
298.3349609375
 10
535.30859375
 20
299.0732421875
 10
532.9267578125
 20
299.8955078125
 10
529.314453125
 20
299.8955078125
 10
521.59375
 20
299.8955078125
 10
516.99609375
 20
294.228515625
 10
517.0771484375
 20
286.919921875
 10
517.0771484375
 20
278.7080078125
 10
522.4150390625
 20
274.0263671875
 10
529.314453125
 20
274.0263671875
 10
532.8447265625
 20
274.0263671875
 10
535.30859375
 20
274.7646484375
 10
537.279296875
 20
275.587890625
 10
537.279296875
 20
275.587890625
 10
538.67578125
 20
268.1142578125
 10
538.67578125
 20
268.1142578125
 97
        0
 75
     2
 76
     1
 98
        0
  0
SPLINE
  5
72
330
3C
100
AcDbEntity
  8
Layer 1
370
     0
100
AcDbSpline
210
0.0
220
0.0
230
1.0
 70
    11
 71
     3
 72
    23
 73
    19
 74
     0
 42
0.0000000001
 43
0.0000000001
 40
0.0
 40
0.0
 40
0.0
 40
0.0
 40
1.0
 40
1.0
 40
1.0
 40
2.0
 40
2.0
 40
2.0
 40
3.0
 40
3.0
 40
3.0
 40
4.0
 40
4.0
 40
4.0
 40
5.0
 40
5.0
 40
5.0
 40
6.0
 40
6.0
 40
6.0
 40
6.0
 10
230.3779296875
 20
320.0
 30
0.0
 10
230.3779296875
 20
304.412109375
 30
0.0
 10
224.037109375
 20
290.27734375
 30
0.0
 10
213.798828125
 20
280.0400390625
 30
0.0
 10
213.798828125
 20
280.0400390625
 30
0.0
 10
218.6650390625
 20
275.1748046875
 30
0.0
 10
218.6650390625
 20
275.1748046875
 30
0.0
 10
230.14892578125
 20
286.6591796875
 30
0.0
 10
237.2607421875
 20
302.5146484375
 30
0.0
 10
237.2607421875
 20
320.0
 30
0.0
 10
237.2607421875
 20
337.484375
 30
0.0
 10
230.14892578125
 20
353.34033203125
 30
0.0
 10
218.6650390625
 20
364.82470703125
 30
0.0
 10
218.6650390625
 20
364.82470703125
 30
0.0
 10
213.7998046875
 20
359.95947265625
 30
0.0
 10
213.7998046875
 20
359.95947265625
 30
0.0
 10
224.0380859375
 20
349.7216796875
 30
0.0
 10
230.3779296875
 20
335.58740234375
 30
0.0
 10
230.3779296875
 20
320.0
 30
0.0
  0
HATCH
  5
73
330
3C
100
AcDbEntity
  8
Layer 1
 62
   224
420
 10362466
100
AcDbHatch
 10
0.0
 20
0.0
 30
0.0
210
0.0
220
0.0
230
1.0
  2
SOLID
 70
     1
 71
     0
 91
        1
 92
        1
 93
        2
 72
     4
 94
        3
 73
     0
 74
     0
 95
       23
 96
       19
 40
0.0
 40
0.0
 40
0.0
 40
0.0
 40
1.0
 40
1.0
 40
1.0
 40
2.0
 40
2.0
 40
2.0
 40
3.0
 40
3.0
 40
3.0
 40
4.0
 40
4.0
 40
4.0
 40
5.0
 40
5.0
 40
5.0
 40
6.0
 40
6.0
 40
6.0
 40
6.0
 10
230.3779296875
 20
320.0
 10
230.3779296875
 20
304.412109375
 10
224.037109375
 20
290.27734375
 10
213.798828125
 20
280.0400390625
 10
213.798828125
 20
280.0400390625
 10
218.6650390625
 20
275.1748046875
 10
218.6650390625
 20
275.1748046875
 10
230.14892578125
 20
286.6591796875
 10
237.2607421875
 20
302.5146484375
 10
237.2607421875
 20
320.0
 10
237.2607421875
 20
337.484375
 10
230.14892578125
 20
353.34033203125
 10
218.6650390625
 20
364.82470703125
 10
218.6650390625
 20
364.82470703125
 10
213.7998046875
 20
359.95947265625
 10
213.7998046875
 20
359.95947265625
 10
224.0380859375
 20
349.7216796875
 10
230.3779296875
 20
335.58740234375
 10
230.3779296875
 20
320.0
 72
     1
 10
230.3779296875
 20
320.0
 11
230.3779296875
 21
320.0
 97
        0
 75
     2
 76
     1
 98
        0
  0
SPLINE
  5
74
330
3C
100
AcDbEntity
  8
Layer 1
370
     0
100
AcDbSpline
210
0.0
220
0.0
230
1.0
 70
    11
 71
     3
 72
    23
 73
    19
 74
     0
 42
0.0000000001
 43
0.0000000001
 40
0.0
 40
0.0
 40
0.0
 40
0.0
 40
1.0
 40
1.0
 40
1.0
 40
2.0
 40
2.0
 40
2.0
 40
3.0
 40
3.0
 40
3.0
 40
4.0
 40
4.0
 40
4.0
 40
5.0
 40
5.0
 40
5.0
 40
6.0
 40
6.0
 40
6.0
 40
6.0
 10
210.09326171875
 20
356.2529296875
 30
0.0
 10
210.09326171875
 20
356.2529296875
 30
0.0
 10
205.228515625
 20
351.3876953125
 30
0.0
 10
205.228515625
 20
351.3876953125
 30
0.0
 10
213.2705078125
 20
343.345703125
 30
0.0
 10
218.25048828125
 20
332.244140625
 30
0.0
 10
218.25048828125
 20
320.0
 30
0.0
 10
218.25048828125
 20
307.755859375
 30
0.0
 10
213.2705078125
 20
296.6533203125
 30
0.0
 10
205.228515625
 20
288.611328125
 30
0.0
 10
205.228515625
 20
288.611328125
 30
0.0
 10
210.09326171875
 20
283.74609375
 30
0.0
 10
210.09326171875
 20
283.74609375
 30
0.0
 10
219.38134765625
 20
293.0341796875
 30
0.0
 10
225.13427734375
 20
305.8564453125
 30
0.0
 10
225.13427734375
 20
320.0
 30
0.0
 10
225.13427734375
 20
334.14111328125
 30
0.0
 10
219.38134765625
 20
346.96484375
 30
0.0
 10
210.09326171875
 20
356.2529296875
 30
0.0
  0
HATCH
  5
75
330
3C
100
AcDbEntity
  8
Layer 1
 62
   224
420
 10362466
100
AcDbHatch
 10
0.0
 20
0.0
 30
0.0
210
0.0
220
0.0
230
1.0
  2
SOLID
 70
     1
 71
     0
 91
        1
 92
        1
 93
        2
 72
     4
 94
        3
 73
     0
 74
     0
 95
       23
 96
       19
 40
0.0
 40
0.0
 40
0.0
 40
0.0
 40
1.0
 40
1.0
 40
1.0
 40
2.0
 40
2.0
 40
2.0
 40
3.0
 40
3.0
 40
3.0
 40
4.0
 40
4.0
 40
4.0
 40
5.0
 40
5.0
 40
5.0
 40
6.0
 40
6.0
 40
6.0
 40
6.0
 10
210.09326171875
 20
356.2529296875
 10
210.09326171875
 20
356.2529296875
 10
205.228515625
 20
351.3876953125
 10
205.228515625
 20
351.3876953125
 10
213.2705078125
 20
343.345703125
 10
218.25048828125
 20
332.244140625
 10
218.25048828125
 20
320.0
 10
218.25048828125
 20
307.755859375
 10
213.2705078125
 20
296.6533203125
 10
205.228515625
 20
288.611328125
 10
205.228515625
 20
288.611328125
 10
210.09326171875
 20
283.74609375
 10
210.09326171875
 20
283.74609375
 10
219.38134765625
 20
293.0341796875
 10
225.13427734375
 20
305.8564453125
 10
225.13427734375
 20
320.0
 10
225.13427734375
 20
334.14111328125
 10
219.38134765625
 20
346.96484375
 10
210.09326171875
 20
356.2529296875
 72
     1
 10
210.09326171875
 20
356.2529296875
 11
210.09326171875
 21
356.2529296875
 97
        0
 75
     2
 76
     1
 98
        0
  0
SPLINE
  5
76
330
3C
100
AcDbEntity
  8
Layer 1
370
     0
100
AcDbSpline
210
0.0
220
0.0
230
1.0
 70
    11
 71
     3
 72
    23
 73
    19
 74
     0
 42
0.0000000001
 43
0.0000000001
 40
0.0
 40
0.0
 40
0.0
 40
0.0
 40
1.0
 40
1.0
 40
1.0
 40
2.0
 40
2.0
 40
2.0
 40
3.0
 40
3.0
 40
3.0
 40
4.0
 40
4.0
 40
4.0
 40
5.0
 40
5.0
 40
5.0
 40
6.0
 40
6.0
 40
6.0
 40
6.0
 10
201.2119140625
 20
347.37158203125
 30
0.0
 10
201.2119140625
 20
347.37158203125
 30
0.0
 10
196.3466796875
 20
342.5068359375
 30
0.0
 10
196.3466796875
 20
342.5068359375
 30
0.0
 10
202.11279296875
 20
336.74072265625
 30
0.0
 10
205.68505859375
 20
328.77978515625
 30
0.0
 10
205.68505859375
 20
320.0
 30
0.0
 10
205.68505859375
 20
311.2197265625
 30
0.0
 10
202.11279296875
 20
303.2587890625
 30
0.0
 10
196.3466796875
 20
297.4921875
 30
0.0
 10
196.3466796875
 20
297.4921875
 30
0.0
 10
201.2119140625
 20
292.6279296875
 30
0.0
 10
201.2119140625
 20
292.6279296875
 30
0.0
 10
208.22509765625
 20
299.640625
 30
0.0
 10
212.56787109375
 20
309.322265625
 30
0.0
 10
212.56787109375
 20
320.0
 30
0.0
 10
212.56787109375
 20
330.6767578125
 30
0.0
 10
208.22509765625
 20
340.3583984375
 30
0.0
 10
201.2119140625
 20
347.37158203125
 30
0.0
  0
HATCH
  5
77
330
3C
100
AcDbEntity
  8
Layer 1
 62
   224
420
 10362466
100
AcDbHatch
 10
0.0
 20
0.0
 30
0.0
210
0.0
220
0.0
230
1.0
  2
SOLID
 70
     1
 71
     0
 91
        1
 92
        1
 93
        2
 72
     4
 94
        3
 73
     0
 74
     0
 95
       23
 96
       19
 40
0.0
 40
0.0
 40
0.0
 40
0.0
 40
1.0
 40
1.0
 40
1.0
 40
2.0
 40
2.0
 40
2.0
 40
3.0
 40
3.0
 40
3.0
 40
4.0
 40
4.0
 40
4.0
 40
5.0
 40
5.0
 40
5.0
 40
6.0
 40
6.0
 40
6.0
 40
6.0
 10
201.2119140625
 20
347.37158203125
 10
201.2119140625
 20
347.37158203125
 10
196.3466796875
 20
342.5068359375
 10
196.3466796875
 20
342.5068359375
 10
202.11279296875
 20
336.74072265625
 10
205.68505859375
 20
328.77978515625
 10
205.68505859375
 20
320.0
 10
205.68505859375
 20
311.2197265625
 10
202.11279296875
 20
303.2587890625
 10
196.3466796875
 20
297.4921875
 10
196.3466796875
 20
297.4921875
 10
201.2119140625
 20
292.6279296875
 10
201.2119140625
 20
292.6279296875
 10
208.22509765625
 20
299.640625
 10
212.56787109375
 20
309.322265625
 10
212.56787109375
 20
320.0
 10
212.56787109375
 20
330.6767578125
 10
208.22509765625
 20
340.3583984375
 10
201.2119140625
 20
347.37158203125
 72
     1
 10
201.2119140625
 20
347.37158203125
 11
201.2119140625
 21
347.37158203125
 97
        0
 75
     2
 76
     1
 98
        0
  0
SPLINE
  5
78
330
3C
100
AcDbEntity
  8
Layer 1
370
     0
100
AcDbSpline
210
0.0
220
0.0
230
1.0
 70
    11
 71
     3
 72
    23
 73
    19
 74
     0
 42
0.0000000001
 43
0.0000000001
 40
0.0
 40
0.0
 40
0.0
 40
0.0
 40
1.0
 40
1.0
 40
1.0
 40
2.0
 40
2.0
 40
2.0
 40
3.0
 40
3.0
 40
3.0
 40
4.0
 40
4.0
 40
4.0
 40
5.0
 40
5.0
 40
5.0
 40
6.0
 40
6.0
 40
6.0
 40
6.0
 10
108.125
 20
320.0
 30
0.0
 10
108.125
 20
335.5869140625
 30
0.0
 10
114.4658203125
 20
349.72216796875
 30
0.0
 10
124.7041015625
 20
359.958984375
 30
0.0
 10
124.7041015625
 20
359.958984375
 30
0.0
 10
119.8388671875
 20
364.82421875
 30
0.0
 10
119.8388671875
 20
364.82421875
 30
0.0
 10
108.35400390625
 20
353.33984375
 30
0.0
 10
101.2421875
 20
337.48486328125
 30
0.0
 10
101.2421875
 20
320.0
 30
0.0
 10
101.2421875
 20
302.5146484375
 30
0.0
 10
108.35400390625
 20
286.6591796875
 30
0.0
 10
119.837890625
 20
275.1748046875
 30
0.0
 10
119.837890625
 20
275.1748046875
 30
0.0
 10
124.703125
 20
280.0400390625
 30
0.0
 10
124.703125
 20
280.0400390625
 30
0.0
 10
114.4658203125
 20
290.27734375
 30
0.0
 10
108.125
 20
304.412109375
 30
0.0
 10
108.125
 20
320.0
 30
0.0
  0
HATCH
  5
79
330
3C
100
AcDbEntity
  8
Layer 1
 62
   152
420
  1799611
100
AcDbHatch
 10
0.0
 20
0.0
 30
0.0
210
0.0
220
0.0
230
1.0
  2
SOLID
 70
     1
 71
     0
 91
        1
 92
        1
 93
        2
 72
     4
 94
        3
 73
     0
 74
     0
 95
       23
 96
       19
 40
0.0
 40
0.0
 40
0.0
 40
0.0
 40
1.0
 40
1.0
 40
1.0
 40
2.0
 40
2.0
 40
2.0
 40
3.0
 40
3.0
 40
3.0
 40
4.0
 40
4.0
 40
4.0
 40
5.0
 40
5.0
 40
5.0
 40
6.0
 40
6.0
 40
6.0
 40
6.0
 10
108.125
 20
320.0
 10
108.125
 20
335.5869140625
 10
114.4658203125
 20
349.72216796875
 10
124.7041015625
 20
359.958984375
 10
124.7041015625
 20
359.958984375
 10
119.8388671875
 20
364.82421875
 10
119.8388671875
 20
364.82421875
 10
108.35400390625
 20
353.33984375
 10
101.2421875
 20
337.48486328125
 10
101.2421875
 20
320.0
 10
101.2421875
 20
302.5146484375
 10
108.35400390625
 20
286.6591796875
 10
119.837890625
 20
275.1748046875
 10
119.837890625
 20
275.1748046875
 10
124.703125
 20
280.0400390625
 10
124.703125
 20
280.0400390625
 10
114.4658203125
 20
290.27734375
 10
108.125
 20
304.412109375
 10
108.125
 20
320.0
 72
     1
 10
108.125
 20
320.0
 11
108.125
 21
320.0
 97
        0
 75
     2
 76
     1
 98
        0
  0
SPLINE
  5
7A
330
3C
100
AcDbEntity
  8
Layer 1
370
     0
100
AcDbSpline
210
0.0
220
0.0
230
1.0
 70
    11
 71
     3
 72
    23
 73
    19
 74
     0
 42
0.0000000001
 43
0.0000000001
 40
0.0
 40
0.0
 40
0.0
 40
0.0
 40
1.0
 40
1.0
 40
1.0
 40
2.0
 40
2.0
 40
2.0
 40
3.0
 40
3.0
 40
3.0
 40
4.0
 40
4.0
 40
4.0
 40
5.0
 40
5.0
 40
5.0
 40
6.0
 40
6.0
 40
6.0
 40
6.0
 10
128.41015625
 20
283.7470703125
 30
0.0
 10
128.41015625
 20
283.7470703125
 30
0.0
 10
133.275390625
 20
288.611328125
 30
0.0
 10
133.275390625
 20
288.611328125
 30
0.0
 10
125.2333984375
 20
296.6533203125
 30
0.0
 10
120.251953125
 20
307.755859375
 30
0.0
 10
120.251953125
 20
320.0
 30
0.0
 10
120.251953125
 20
332.244140625
 30
0.0
 10
125.2333984375
 20
343.34716796875
 30
0.0
 10
133.275390625
 20
351.38818359375
 30
0.0
 10
133.275390625
 20
351.38818359375
 30
0.0
 10
128.41015625
 20
356.2529296875
 30
0.0
 10
128.41015625
 20
356.2529296875
 30
0.0
 10
119.12109375
 20
346.96484375
 30
0.0
 10
113.369140625
 20
334.14208984375
 30
0.0
 10
113.369140625
 20
320.0
 30
0.0
 10
113.369140625
 20
305.8583984375
 30
0.0
 10
119.12109375
 20
293.03515625
 30
0.0
 10
128.41015625
 20
283.7470703125
 30
0.0
  0
HATCH
  5
7B
330
3C
100
AcDbEntity
  8
Layer 1
 62
   152
420
  1799611
100
AcDbHatch
 10
0.0
 20
0.0
 30
0.0
210
0.0
220
0.0
230
1.0
  2
SOLID
 70
     1
 71
     0
 91
        1
 92
        1
 93
        2
 72
     4
 94
        3
 73
     0
 74
     0
 95
       23
 96
       19
 40
0.0
 40
0.0
 40
0.0
 40
0.0
 40
1.0
 40
1.0
 40
1.0
 40
2.0
 40
2.0
 40
2.0
 40
3.0
 40
3.0
 40
3.0
 40
4.0
 40
4.0
 40
4.0
 40
5.0
 40
5.0
 40
5.0
 40
6.0
 40
6.0
 40
6.0
 40
6.0
 10
128.41015625
 20
283.7470703125
 10
128.41015625
 20
283.7470703125
 10
133.275390625
 20
288.611328125
 10
133.275390625
 20
288.611328125
 10
125.2333984375
 20
296.6533203125
 10
120.251953125
 20
307.755859375
 10
120.251953125
 20
320.0
 10
120.251953125
 20
332.244140625
 10
125.2333984375
 20
343.34716796875
 10
133.275390625
 20
351.38818359375
 10
133.275390625
 20
351.38818359375
 10
128.41015625
 20
356.2529296875
 10
128.41015625
 20
356.2529296875
 10
119.12109375
 20
346.96484375
 10
113.369140625
 20
334.14208984375
 10
113.369140625
 20
320.0
 10
113.369140625
 20
305.8583984375
 10
119.12109375
 20
293.03515625
 10
128.41015625
 20
283.7470703125
 72
     1
 10
128.41015625
 20
283.7470703125
 11
128.41015625
 21
283.7470703125
 97
        0
 75
     2
 76
     1
 98
        0
  0
SPLINE
  5
7C
330
3C
100
AcDbEntity
  8
Layer 1
370
     0
100
AcDbSpline
210
0.0
220
0.0
230
1.0
 70
    11
 71
     3
 72
    23
 73
    19
 74
     0
 42
0.0000000001
 43
0.0000000001
 40
0.0
 40
0.0
 40
0.0
 40
0.0
 40
1.0
 40
1.0
 40
1.0
 40
2.0
 40
2.0
 40
2.0
 40
3.0
 40
3.0
 40
3.0
 40
4.0
 40
4.0
 40
4.0
 40
5.0
 40
5.0
 40
5.0
 40
6.0
 40
6.0
 40
6.0
 40
6.0
 10
137.291015625
 20
292.6279296875
 30
0.0
 10
137.291015625
 20
292.6279296875
 30
0.0
 10
142.15576171875
 20
297.4931640625
 30
0.0
 10
142.15576171875
 20
297.4931640625
 30
0.0
 10
136.39013671875
 20
303.2587890625
 30
0.0
 10
132.81787109375
 20
311.220703125
 30
0.0
 10
132.81787109375
 20
320.0
 30
0.0
 10
132.81787109375
 20
328.77978515625
 30
0.0
 10
136.39013671875
 20
336.74072265625
 30
0.0
 10
142.15576171875
 20
342.5068359375
 30
0.0
 10
142.15576171875
 20
342.5068359375
 30
0.0
 10
137.291015625
 20
347.3720703125
 30
0.0
 10
137.291015625
 20
347.3720703125
 30
0.0
 10
130.27783203125
 20
340.35888671875
 30
0.0
 10
125.93505859375
 20
330.6767578125
 30
0.0
 10
125.93505859375
 20
320.0
 30
0.0
 10
125.93505859375
 20
309.322265625
 30
0.0
 10
130.27783203125
 20
299.640625
 30
0.0
 10
137.291015625
 20
292.6279296875
 30
0.0
  0
HATCH
  5
7D
330
3C
100
AcDbEntity
  8
Layer 1
 62
   152
420
  1799611
100
AcDbHatch
 10
0.0
 20
0.0
 30
0.0
210
0.0
220
0.0
230
1.0
  2
SOLID
 70
     1
 71
     0
 91
        1
 92
        1
 93
        2
 72
     4
 94
        3
 73
     0
 74
     0
 95
       23
 96
       19
 40
0.0
 40
0.0
 40
0.0
 40
0.0
 40
1.0
 40
1.0
 40
1.0
 40
2.0
 40
2.0
 40
2.0
 40
3.0
 40
3.0
 40
3.0
 40
4.0
 40
4.0
 40
4.0
 40
5.0
 40
5.0
 40
5.0
 40
6.0
 40
6.0
 40
6.0
 40
6.0
 10
137.291015625
 20
292.6279296875
 10
137.291015625
 20
292.6279296875
 10
142.15576171875
 20
297.4931640625
 10
142.15576171875
 20
297.4931640625
 10
136.39013671875
 20
303.2587890625
 10
132.81787109375
 20
311.220703125
 10
132.81787109375
 20
320.0
 10
132.81787109375
 20
328.77978515625
 10
136.39013671875
 20
336.74072265625
 10
142.15576171875
 20
342.5068359375
 10
142.15576171875
 20
342.5068359375
 10
137.291015625
 20
347.3720703125
 10
137.291015625
 20
347.3720703125
 10
130.27783203125
 20
340.35888671875
 10
125.93505859375
 20
330.6767578125
 10
125.93505859375
 20
320.0
 10
125.93505859375
 20
309.322265625
 10
130.27783203125
 20
299.640625
 10
137.291015625
 20
292.6279296875
 72
     1
 10
137.291015625
 20
292.6279296875
 11
137.291015625
 21
292.6279296875
 97
        0
 75
     2
 76
     1
 98
        0
  0
SPLINE
  5
7E
330
3C
100
AcDbEntity
  8
Layer 1
370
     0
100
AcDbSpline
210
0.0
220
0.0
230
1.0
 70
    11
 71
     3
 72
    23
 73
    19
 74
     0
 42
0.0000000001
 43
0.0000000001
 40
0.0
 40
0.0
 40
0.0
 40
0.0
 40
1.0
 40
1.0
 40
1.0
 40
2.0
 40
2.0
 40
2.0
 40
3.0
 40
3.0
 40
3.0
 40
4.0
 40
4.0
 40
4.0
 40
5.0
 40
5.0
 40
5.0
 40
6.0
 40
6.0
 40
6.0
 40
6.0
 10
169.251953125
 20
381.12646484375
 30
0.0
 10
184.8388671875
 20
381.12646484375
 30
0.0
 10
198.97412109375
 20
374.78564453125
 30
0.0
 10
209.2109375
 20
364.54736328125
 30
0.0
 10
209.2109375
 20
364.54736328125
 30
0.0
 10
214.076171875
 20
369.41259765625
 30
0.0
 10
214.076171875
 20
369.41259765625
 30
0.0
 10
202.591796875
 20
380.8974609375
 30
0.0
 10
186.73681640625
 20
388.00927734375
 30
0.0
 10
169.251953125
 20
388.00927734375
 30
0.0
 10
151.76611328125
 20
388.00927734375
 30
0.0
 10
135.9111328125
 20
380.8974609375
 30
0.0
 10
124.4267578125
 20
369.41357421875
 30
0.0
 10
124.4267578125
 20
369.41357421875
 30
0.0
 10
129.2919921875
 20
364.54736328125
 30
0.0
 10
129.2919921875
 20
364.54736328125
 30
0.0
 10
139.52880859375
 20
374.78564453125
 30
0.0
 10
153.6640625
 20
381.12646484375
 30
0.0
 10
169.251953125
 20
381.12646484375
 30
0.0
  0
HATCH
  5
7F
330
3C
100
AcDbEntity
  8
Layer 1
 62
    30
420
 16225053
100
AcDbHatch
 10
0.0
 20
0.0
 30
0.0
210
0.0
220
0.0
230
1.0
  2
SOLID
 70
     1
 71
     0
 91
        1
 92
        1
 93
        2
 72
     4
 94
        3
 73
     0
 74
     0
 95
       23
 96
       19
 40
0.0
 40
0.0
 40
0.0
 40
0.0
 40
1.0
 40
1.0
 40
1.0
 40
2.0
 40
2.0
 40
2.0
 40
3.0
 40
3.0
 40
3.0
 40
4.0
 40
4.0
 40
4.0
 40
5.0
 40
5.0
 40
5.0
 40
6.0
 40
6.0
 40
6.0
 40
6.0
 10
169.251953125
 20
381.12646484375
 10
184.8388671875
 20
381.12646484375
 10
198.97412109375
 20
374.78564453125
 10
209.2109375
 20
364.54736328125
 10
209.2109375
 20
364.54736328125
 10
214.076171875
 20
369.41259765625
 10
214.076171875
 20
369.41259765625
 10
202.591796875
 20
380.8974609375
 10
186.73681640625
 20
388.00927734375
 10
169.251953125
 20
388.00927734375
 10
151.76611328125
 20
388.00927734375
 10
135.9111328125
 20
380.8974609375
 10
124.4267578125
 20
369.41357421875
 10
124.4267578125
 20
369.41357421875
 10
129.2919921875
 20
364.54736328125
 10
129.2919921875
 20
364.54736328125
 10
139.52880859375
 20
374.78564453125
 10
153.6640625
 20
381.12646484375
 10
169.251953125
 20
381.12646484375
 72
     1
 10
169.251953125
 20
381.12646484375
 11
169.251953125
 21
381.12646484375
 97
        0
 75
     2
 76
     1
 98
        0
  0
SPLINE
  5
80
330
3C
100
AcDbEntity
  8
Layer 1
370
     0
100
AcDbSpline
210
0.0
220
0.0
230
1.0
 70
    11
 71
     3
 72
    23
 73
    19
 74
     0
 42
0.0000000001
 43
0.0000000001
 40
0.0
 40
0.0
 40
0.0
 40
0.0
 40
1.0
 40
1.0
 40
1.0
 40
2.0
 40
2.0
 40
2.0
 40
3.0
 40
3.0
 40
3.0
 40
4.0
 40
4.0
 40
4.0
 40
5.0
 40
5.0
 40
5.0
 40
6.0
 40
6.0
 40
6.0
 40
6.0
 10
132.99853515625
 20
360.84130859375
 30
0.0
 10
132.99853515625
 20
360.84130859375
 30
0.0
 10
137.86328125
 20
355.97607421875
 30
0.0
 10
137.86328125
 20
355.97607421875
 30
0.0
 10
145.9052734375
 20
364.01806640625
 30
0.0
 10
157.00732421875
 20
368.99951171875
 30
0.0
 10
169.25146484375
 20
368.99951171875
 30
0.0
 10
181.49560546875
 20
368.99951171875
 30
0.0
 10
192.5986328125
 20
364.01806640625
 30
0.0
 10
200.640625
 20
355.97607421875
 30
0.0
 10
200.640625
 20
355.97607421875
 30
0.0
 10
205.50439453125
 20
360.84130859375
 30
0.0
 10
205.50439453125
 20
360.84130859375
 30
0.0
 10
196.21630859375
 20
370.12939453125
 30
0.0
 10
183.3935546875
 20
375.88232421875
 30
0.0
 10
169.25146484375
 20
375.88232421875
 30
0.0
 10
155.109375
 20
375.88232421875
 30
0.0
 10
142.28662109375
 20
370.12939453125
 30
0.0
 10
132.99853515625
 20
360.84130859375
 30
0.0
  0
HATCH
  5
81
330
3C
100
AcDbEntity
  8
Layer 1
 62
    30
420
 16225053
100
AcDbHatch
 10
0.0
 20
0.0
 30
0.0
210
0.0
220
0.0
230
1.0
  2
SOLID
 70
     1
 71
     0
 91
        1
 92
        1
 93
        2
 72
     4
 94
        3
 73
     0
 74
     0
 95
       23
 96
       19
 40
0.0
 40
0.0
 40
0.0
 40
0.0
 40
1.0
 40
1.0
 40
1.0
 40
2.0
 40
2.0
 40
2.0
 40
3.0
 40
3.0
 40
3.0
 40
4.0
 40
4.0
 40
4.0
 40
5.0
 40
5.0
 40
5.0
 40
6.0
 40
6.0
 40
6.0
 40
6.0
 10
132.99853515625
 20
360.84130859375
 10
132.99853515625
 20
360.84130859375
 10
137.86328125
 20
355.97607421875
 10
137.86328125
 20
355.97607421875
 10
145.9052734375
 20
364.01806640625
 10
157.00732421875
 20
368.99951171875
 10
169.25146484375
 20
368.99951171875
 10
181.49560546875
 20
368.99951171875
 10
192.5986328125
 20
364.01806640625
 10
200.640625
 20
355.97607421875
 10
200.640625
 20
355.97607421875
 10
205.50439453125
 20
360.84130859375
 10
205.50439453125
 20
360.84130859375
 10
196.21630859375
 20
370.12939453125
 10
183.3935546875
 20
375.88232421875
 10
169.25146484375
 20
375.88232421875
 10
155.109375
 20
375.88232421875
 10
142.28662109375
 20
370.12939453125
 10
132.99853515625
 20
360.84130859375
 72
     1
 10
132.99853515625
 20
360.84130859375
 11
132.99853515625
 21
360.84130859375
 97
        0
 75
     2
 76
     1
 98
        0
  0
SPLINE
  5
82
330
3C
100
AcDbEntity
  8
Layer 1
370
     0
100
AcDbSpline
210
0.0
220
0.0
230
1.0
 70
    11
 71
     3
 72
    23
 73
    19
 74
     0
 42
0.0000000001
 43
0.0000000001
 40
0.0
 40
0.0
 40
0.0
 40
0.0
 40
1.0
 40
1.0
 40
1.0
 40
2.0
 40
2.0
 40
2.0
 40
3.0
 40
3.0
 40
3.0
 40
4.0
 40
4.0
 40
4.0
 40
5.0
 40
5.0
 40
5.0
 40
6.0
 40
6.0
 40
6.0
 40
6.0
 10
141.87939453125
 20
351.96044921875
 30
0.0
 10
141.87939453125
 20
351.96044921875
 30
0.0
 10
146.744140625
 20
347.09521484375
 30
0.0
 10
146.744140625
 20
347.09521484375
 30
0.0
 10
152.51025390625
 20
352.861328125
 30
0.0
 10
160.47216796875
 20
356.43359375
 30
0.0
 10
169.25244140625
 20
356.43359375
 30
0.0
 10
178.03125
 20
356.43359375
 30
0.0
 10
185.9921875
 20
352.861328125
 30
0.0
 10
191.75830078125
 20
347.09521484375
 30
0.0
 10
191.75830078125
 20
347.09521484375
 30
0.0
 10
196.62353515625
 20
351.96044921875
 30
0.0
 10
196.62353515625
 20
351.96044921875
 30
0.0
 10
189.611328125
 20
358.97314453125
 30
0.0
 10
179.92919921875
 20
363.31640625
 30
0.0
 10
169.25244140625
 20
363.31640625
 30
0.0
 10
158.57421875
 20
363.31640625
 30
0.0
 10
148.892578125
 20
358.97314453125
 30
0.0
 10
141.87939453125
 20
351.96044921875
 30
0.0
  0
HATCH
  5
83
330
3C
100
AcDbEntity
  8
Layer 1
 62
    30
420
 16225053
100
AcDbHatch
 10
0.0
 20
0.0
 30
0.0
210
0.0
220
0.0
230
1.0
  2
SOLID
 70
     1
 71
     0
 91
        1
 92
        1
 93
        2
 72
     4
 94
        3
 73
     0
 74
     0
 95
       23
 96
       19
 40
0.0
 40
0.0
 40
0.0
 40
0.0
 40
1.0
 40
1.0
 40
1.0
 40
2.0
 40
2.0
 40
2.0
 40
3.0
 40
3.0
 40
3.0
 40
4.0
 40
4.0
 40
4.0
 40
5.0
 40
5.0
 40
5.0
 40
6.0
 40
6.0
 40
6.0
 40
6.0
 10
141.87939453125
 20
351.96044921875
 10
141.87939453125
 20
351.96044921875
 10
146.744140625
 20
347.09521484375
 10
146.744140625
 20
347.09521484375
 10
152.51025390625
 20
352.861328125
 10
160.47216796875
 20
356.43359375
 10
169.25244140625
 20
356.43359375
 10
178.03125
 20
356.43359375
 10
185.9921875
 20
352.861328125
 10
191.75830078125
 20
347.09521484375
 10
191.75830078125
 20
347.09521484375
 10
196.62353515625
 20
351.96044921875
 10
196.62353515625
 20
351.96044921875
 10
189.611328125
 20
358.97314453125
 10
179.92919921875
 20
363.31640625
 10
169.25244140625
 20
363.31640625
 10
158.57421875
 20
363.31640625
 10
148.892578125
 20
358.97314453125
 10
141.87939453125
 20
351.96044921875
 72
     1
 10
141.87939453125
 20
351.96044921875
 11
141.87939453125
 21
351.96044921875
 97
        0
 75
     2
 76
     1
 98
        0
  0
SPLINE
  5
84
330
3C
100
AcDbEntity
  8
Layer 1
370
     0
100
AcDbSpline
210
0.0
220
0.0
230
1.0
 70
    11
 71
     3
 72
    23
 73
    19
 74
     0
 42
0.0000000001
 43
0.0000000001
 40
0.0
 40
0.0
 40
0.0
 40
0.0
 40
1.0
 40
1.0
 40
1.0
 40
2.0
 40
2.0
 40
2.0
 40
3.0
 40
3.0
 40
3.0
 40
4.0
 40
4.0
 40
4.0
 40
5.0
 40
5.0
 40
5.0
 40
6.0
 40
6.0
 40
6.0
 40
6.0
 10
169.25146484375
 20
258.873046875
 30
0.0
 10
153.66357421875
 20
258.873046875
 30
0.0
 10
139.529296875
 20
265.2138671875
 30
0.0
 10
129.29248046875
 20
275.4521484375
 30
0.0
 10
129.29248046875
 20
275.4521484375
 30
0.0
 10
124.42626953125
 20
270.5869140625
 30
0.0
 10
124.42626953125
 20
270.5869140625
 30
0.0
 10
135.91064453125
 20
259.1015625
 30
0.0
 10
151.7666015625
 20
251.990234375
 30
0.0
 10
169.25146484375
 20
251.990234375
 30
0.0
 10
186.736328125
 20
251.990234375
 30
0.0
 10
202.59228515625
 20
259.1015625
 30
0.0
 10
214.07666015625
 20
270.5869140625
 30
0.0
 10
214.07666015625
 20
270.5869140625
 30
0.0
 10
209.21142578125
 20
275.451171875
 30
0.0
 10
209.21142578125
 20
275.451171875
 30
0.0
 10
198.9736328125
 20
265.2138671875
 30
0.0
 10
184.83837890625
 20
258.873046875
 30
0.0
 10
169.25146484375
 20
258.873046875
 30
0.0
  0
HATCH
  5
85
330
3C
100
AcDbEntity
  8
Layer 1
 62
    95
420
  3716169
100
AcDbHatch
 10
0.0
 20
0.0
 30
0.0
210
0.0
220
0.0
230
1.0
  2
SOLID
 70
     1
 71
     0
 91
        1
 92
        1
 93
        2
 72
     4
 94
        3
 73
     0
 74
     0
 95
       23
 96
       19
 40
0.0
 40
0.0
 40
0.0
 40
0.0
 40
1.0
 40
1.0
 40
1.0
 40
2.0
 40
2.0
 40
2.0
 40
3.0
 40
3.0
 40
3.0
 40
4.0
 40
4.0
 40
4.0
 40
5.0
 40
5.0
 40
5.0
 40
6.0
 40
6.0
 40
6.0
 40
6.0
 10
169.25146484375
 20
258.873046875
 10
153.66357421875
 20
258.873046875
 10
139.529296875
 20
265.2138671875
 10
129.29248046875
 20
275.4521484375
 10
129.29248046875
 20
275.4521484375
 10
124.42626953125
 20
270.5869140625
 10
124.42626953125
 20
270.5869140625
 10
135.91064453125
 20
259.1015625
 10
151.7666015625
 20
251.990234375
 10
169.25146484375
 20
251.990234375
 10
186.736328125
 20
251.990234375
 10
202.59228515625
 20
259.1015625
 10
214.07666015625
 20
270.5869140625
 10
214.07666015625
 20
270.5869140625
 10
209.21142578125
 20
275.451171875
 10
209.21142578125
 20
275.451171875
 10
198.9736328125
 20
265.2138671875
 10
184.83837890625
 20
258.873046875
 10
169.25146484375
 20
258.873046875
 72
     1
 10
169.25146484375
 20
258.873046875
 11
169.25146484375
 21
258.873046875
 97
        0
 75
     2
 76
     1
 98
        0
  0
SPLINE
  5
86
330
3C
100
AcDbEntity
  8
Layer 1
370
     0
100
AcDbSpline
210
0.0
220
0.0
230
1.0
 70
    11
 71
     3
 72
    23
 73
    19
 74
     0
 42
0.0000000001
 43
0.0000000001
 40
0.0
 40
0.0
 40
0.0
 40
0.0
 40
1.0
 40
1.0
 40
1.0
 40
2.0
 40
2.0
 40
2.0
 40
3.0
 40
3.0
 40
3.0
 40
4.0
 40
4.0
 40
4.0
 40
5.0
 40
5.0
 40
5.0
 40
6.0
 40
6.0
 40
6.0
 40
6.0
 10
205.50439453125
 20
279.158203125
 30
0.0
 10
205.50439453125
 20
279.158203125
 30
0.0
 10
200.63916015625
 20
284.0234375
 30
0.0
 10
200.63916015625
 20
284.0234375
 30
0.0
 10
192.5986328125
 20
275.9814453125
 30
0.0
 10
181.49560546875
 20
271.0009765625
 30
0.0
 10
169.25146484375
 20
271.0009765625
 30
0.0
 10
157.00732421875
 20
271.0009765625
 30
0.0
 10
145.904296875
 20
275.9814453125
 30
0.0
 10
137.86328125
 20
284.0234375
 30
0.0
 10
137.86328125
 20
284.0234375
 30
0.0
 10
132.99853515625
 20
279.158203125
 30
0.0
 10
132.99853515625
 20
279.158203125
 30
0.0
 10
142.28662109375
 20
269.8701171875
 30
0.0
 10
155.109375
 20
264.1171875
 30
0.0
 10
169.25146484375
 20
264.1171875
 30
0.0
 10
183.3935546875
 20
264.1171875
 30
0.0
 10
196.21630859375
 20
269.8701171875
 30
0.0
 10
205.50439453125
 20
279.158203125
 30
0.0
  0
HATCH
  5
87
330
3C
100
AcDbEntity
  8
Layer 1
 62
    95
420
  3716169
100
AcDbHatch
 10
0.0
 20
0.0
 30
0.0
210
0.0
220
0.0
230
1.0
  2
SOLID
 70
     1
 71
     0
 91
        1
 92
        1
 93
        2
 72
     4
 94
        3
 73
     0
 74
     0
 95
       23
 96
       19
 40
0.0
 40
0.0
 40
0.0
 40
0.0
 40
1.0
 40
1.0
 40
1.0
 40
2.0
 40
2.0
 40
2.0
 40
3.0
 40
3.0
 40
3.0
 40
4.0
 40
4.0
 40
4.0
 40
5.0
 40
5.0
 40
5.0
 40
6.0
 40
6.0
 40
6.0
 40
6.0
 10
205.50439453125
 20
279.158203125
 10
205.50439453125
 20
279.158203125
 10
200.63916015625
 20
284.0234375
 10
200.63916015625
 20
284.0234375
 10
192.5986328125
 20
275.9814453125
 10
181.49560546875
 20
271.0009765625
 10
169.25146484375
 20
271.0009765625
 10
157.00732421875
 20
271.0009765625
 10
145.904296875
 20
275.9814453125
 10
137.86328125
 20
284.0234375
 10
137.86328125
 20
284.0234375
 10
132.99853515625
 20
279.158203125
 10
132.99853515625
 20
279.158203125
 10
142.28662109375
 20
269.8701171875
 10
155.109375
 20
264.1171875
 10
169.25146484375
 20
264.1171875
 10
183.3935546875
 20
264.1171875
 10
196.21630859375
 20
269.8701171875
 10
205.50439453125
 20
279.158203125
 72
     1
 10
205.50439453125
 20
279.158203125
 11
205.50439453125
 21
279.158203125
 97
        0
 75
     2
 76
     1
 98
        0
  0
SPLINE
  5
88
330
3C
100
AcDbEntity
  8
Layer 1
370
     0
100
AcDbSpline
210
0.0
220
0.0
230
1.0
 70
    11
 71
     3
 72
    23
 73
    19
 74
     0
 42
0.0000000001
 43
0.0000000001
 40
0.0
 40
0.0
 40
0.0
 40
0.0
 40
1.0
 40
1.0
 40
1.0
 40
2.0
 40
2.0
 40
2.0
 40
3.0
 40
3.0
 40
3.0
 40
4.0
 40
4.0
 40
4.0
 40
5.0
 40
5.0
 40
5.0
 40
6.0
 40
6.0
 40
6.0
 40
6.0
 10
196.62353515625
 20
288.0390625
 30
0.0
 10
196.62353515625
 20
288.0390625
 30
0.0
 10
191.75830078125
 20
292.904296875
 30
0.0
 10
191.75830078125
 20
292.904296875
 30
0.0
 10
185.99267578125
 20
287.1376953125
 30
0.0
 10
178.0302734375
 20
283.56640625
 30
0.0
 10
169.25146484375
 20
283.56640625
 30
0.0
 10
160.4716796875
 20
283.56640625
 30
0.0
 10
152.5107421875
 20
287.1376953125
 30
0.0
 10
146.74462890625
 20
292.904296875
 30
0.0
 10
146.74462890625
 20
292.904296875
 30
0.0
 10
141.87939453125
 20
288.0390625
 30
0.0
 10
141.87939453125
 20
288.0390625
 30
0.0
 10
148.892578125
 20
281.0263671875
 30
0.0
 10
158.57373046875
 20
276.68359375
 30
0.0
 10
169.25146484375
 20
276.68359375
 30
0.0
 10
179.9287109375
 20
276.68359375
 30
0.0
 10
189.6103515625
 20
281.0263671875
 30
0.0
 10
196.62353515625
 20
288.0390625
 30
0.0
  0
HATCH
  5
89
330
3C
100
AcDbEntity
  8
Layer 1
 62
    95
420
  3716169
100
AcDbHatch
 10
0.0
 20
0.0
 30
0.0
210
0.0
220
0.0
230
1.0
  2
SOLID
 70
     1
 71
     0
 91
        1
 92
        1
 93
        2
 72
     4
 94
        3
 73
     0
 74
     0
 95
       23
 96
       19
 40
0.0
 40
0.0
 40
0.0
 40
0.0
 40
1.0
 40
1.0
 40
1.0
 40
2.0
 40
2.0
 40
2.0
 40
3.0
 40
3.0
 40
3.0
 40
4.0
 40
4.0
 40
4.0
 40
5.0
 40
5.0
 40
5.0
 40
6.0
 40
6.0
 40
6.0
 40
6.0
 10
196.62353515625
 20
288.0390625
 10
196.62353515625
 20
288.0390625
 10
191.75830078125
 20
292.904296875
 10
191.75830078125
 20
292.904296875
 10
185.99267578125
 20
287.1376953125
 10
178.0302734375
 20
283.56640625
 10
169.25146484375
 20
283.56640625
 10
160.4716796875
 20
283.56640625
 10
152.5107421875
 20
287.1376953125
 10
146.74462890625
 20
292.904296875
 10
146.74462890625
 20
292.904296875
 10
141.87939453125
 20
288.0390625
 10
141.87939453125
 20
288.0390625
 10
148.892578125
 20
281.0263671875
 10
158.57373046875
 20
276.68359375
 10
169.25146484375
 20
276.68359375
 10
179.9287109375
 20
276.68359375
 10
189.6103515625
 20
281.0263671875
 10
196.62353515625
 20
288.0390625
 72
     1
 10
196.62353515625
 20
288.0390625
 11
196.62353515625
 21
288.0390625
 97
        0
 75
     2
 76
     1
 98
        0
  0
POLYLINE
  5
8A
330
3C
100
AcDbEntity
  8
Layer 1
370
     0
100
AcDb2dPolyline
 66
     1
 10
0.0
 20
0.0
 30
0.0
  0
VERTEX
  5
8B
330
8A
100
AcDbEntity
  8
Layer 1
370
     0
100
AcDbVertex
100
AcDb2dVertex
 10
0.0
 20
640.0
 30
0.0
  0
VERTEX
  5
8C
330
8A
100
AcDbEntity
  8
Layer 1
370
     0
100
AcDbVertex
100
AcDb2dVertex
 10
640.0
 20
640.0
 30
0.0
  0
VERTEX
  5
8D
330
8A
100
AcDbEntity
  8
Layer 1
370
     0
100
AcDbVertex
100
AcDb2dVertex
 10
640.0
 20
0.0
 30
0.0
  0
VERTEX
  5
8E
330
8A
100
AcDbEntity
  8
Layer 1
370
     0
100
AcDbVertex
100
AcDb2dVertex
 10
0.0
 20
0.0
 30
0.0
  0
VERTEX
  5
8F
330
8A
100
AcDbEntity
  8
Layer 1
370
     0
100
AcDbVertex
100
AcDb2dVertex
 10
0.0
 20
640.0
 30
0.0
  0
SEQEND
  5
90
330
8A
100
AcDbEntity
  8
Layer 1
370
     0
  0
ENDBLK
  5
3F
330
3C
100
AcDbEntity
  8
0
100
AcDbBlockEnd
  0
ENDSEC
  0
SECTION
  2
ENTITIES
  0
INSERT
  5
3D
330
1F
100
AcDbEntity
  8
Layer 1
100
AcDbBlockReference
  2
block 2
 10
0.0
 20
0.0
 30
0.0
  0
ENDSEC
  0
SECTION
  2
OBJECTS
  0
DICTIONARY
  5
C
330
0
100
AcDbDictionary
281
     1
  3
ACAD_GROUP
350
D
  3
ACAD_LAYOUT
350
1A
  3
ACAD_MLINESTYLE
350
17
  3
ACAD_PLOTSETTINGS
350
19
  3
ACAD_PLOTSTYLENAME
350
E
  3
ACAD_TABLESTYLE
350
91
  3
ACAD_VISUALSTYLE
350
2A
  0
DICTIONARY
  5
D
102
{ACAD_REACTORS
330
C
102
}
330
C
100
AcDbDictionary
281
     1
  0
DICTIONARY
  5
1A
102
{ACAD_REACTORS
330
C
102
}
330
C
100
AcDbDictionary
281
     1
  3
Layout1
350
1E
  3
Layout2
350
26
  3
Model
350
22
  0
DICTIONARY
  5
17
102
{ACAD_REACTORS
330
C
102
}
330
C
100
AcDbDictionary
281
     1
  3
Standard
350
18
  0
DICTIONARY
  5
19
102
{ACAD_REACTORS
330
C
102
}
330
C
100
AcDbDictionary
281
     1
  0
ACDBDICTIONARYWDFLT
  5
E
102
{ACAD_REACTORS
330
C
102
}
330
C
100
AcDbDictionary
281
     1
  3
Normal
350
F
100
AcDbDictionaryWithDefault
340
F
  0
DICTIONARY
  5
91
102
{ACAD_REACTORS
330
C
102
}
330
C
100
AcDbDictionary
281
     1
  0
DICTIONARY
  5
2A
102
{ACAD_REACTORS
330
C
102
}
330
C
100
AcDbDictionary
281
     1
  3
2dWireframe
350
2F
  3
3D Hidden
350
31
  3
3dWireframe
350
30
  3
Basic
350
32
  3
Brighten
350
36
  3
ColorChange
350
3A
  3
Conceptual
350
34
  3
Dim
350
35
  3
Facepattern
350
39
  3
Flat
350
2B
  3
FlatWithEdges
350
2C
  3
Gouraud
350
2D
  3
GouraudWithEdges
350
2E
  3
Linepattern
350
38
  3
Realistic
350
33
  3
Thicken
350
37
  0
LAYOUT
  5
1E
102
{ACAD_REACTORS
330
1A
102
}
330
1A
100
AcDbPlotSettings
  1

  2
none_device
  4

  6

 40
0.0
 41
0.0
 42
0.0
 43
0.0
 44
0.0
 45
0.0
 46
0.0
 47
0.0
 48
0.0
 49
0.0
140
0.0
141
0.0
142
1.0
143
1.0
 70
   688
 72
     0
 73
     0
 74
     5
  7

 75
    16
 76
     0
 77
     2
 78
   300
147
1.0
148
0.0
149
0.0
100
AcDbLayout
  1
Layout1
 70
     1
 71
     1
 10
0.0
 20
0.0
 11
12.0
 21
9.0
 12
0.0
 22
0.0
 32
0.0
 14
1.000000000000000E+20
 24
1.000000000000000E+20
 34
1.000000000000000E+20
 15
-1.000000000000000E+20
 25
-1.000000000000000E+20
 35
-1.000000000000000E+20
146
0.0
 13
0.0
 23
0.0
 33
0.0
 16
1.0
 26
0.0
 36
0.0
 17
0.0
 27
1.0
 37
0.0
 76
     0
330
1B
  0
LAYOUT
  5
26
102
{ACAD_REACTORS
330
1A
102
}
330
1A
100
AcDbPlotSettings
  1

  2
none_device
  4

  6

 40
0.0
 41
0.0
 42
0.0
 43
0.0
 44
0.0
 45
0.0
 46
0.0
 47
0.0
 48
0.0
 49
0.0
140
0.0
141
0.0
142
1.0
143
1.0
 70
   688
 72
     0
 73
     0
 74
     5
  7

 75
    16
 76
     0
 77
     2
 78
   300
147
1.0
148
0.0
149
0.0
100
AcDbLayout
  1
Layout2
 70
     1
 71
     2
 10
0.0
 20
0.0
 11
0.0
 21
0.0
 12
0.0
 22
0.0
 32
0.0
 14
0.0
 24
0.0
 34
0.0
 15
0.0
 25
0.0
 35
0.0
146
0.0
 13
0.0
 23
0.0
 33
0.0
 16
1.0
 26
0.0
 36
0.0
 17
0.0
 27
1.0
 37
0.0
 76
     0
330
23
  0
LAYOUT
  5
22
102
{ACAD_REACTORS
330
1A
102
}
330
1A
100
AcDbPlotSettings
  1

  2
none_device
  4

  6

 40
0.0
 41
0.0
 42
0.0
 43
0.0
 44
0.0
 45
0.0
 46
0.0
 47
0.0
 48
0.0
 49
0.0
140
0.0
141
0.0
142
1.0
143
1.0
 70
  1712
 72
     0
 73
     0
 74
     0
  7

 75
     0
 76
     0
 77
     2
 78
   300
147
1.0
148
0.0
149
0.0
100
AcDbLayout
  1
Model
 70
     1
 71
     0
 10
0.0
 20
0.0
 11
12.0
 21
9.0
 12
0.0
 22
0.0
 32
0.0
 14
1.000000000000000E+20
 24
1.000000000000000E+20
 34
1.000000000000000E+20
 15
-1.000000000000000E+20
 25
-1.000000000000000E+20
 35
-1.000000000000000E+20
146
0.0
 13
0.0
 23
0.0
 33
0.0
 16
1.0
 26
0.0
 36
0.0
 17
0.0
 27
1.0
 37
0.0
 76
     0
330
1F
331
29
  0
MLINESTYLE
  5
18
102
{ACAD_REACTORS
330
17
102
}
330
17
100
AcDbMlineStyle
  2
Standard
 70
     0
  3

 62
   256
 51
90.0
 52
90.0
 71
     2
 49
0.5
 62
   256
  6
BYLAYER
 49
-0.5
 62
   256
  6
BYLAYER
  0
ACDBPLACEHOLDER
  5
F
102
{ACAD_REACTORS
330
E
102
}
330
E
  0
VISUALSTYLE
  5
2F
102
{ACAD_REACTORS
330
2A
102
}
330
2A
100
AcDbVisualStyle
  2
2dWireframe
 70
     4
 71
     0
 72
     2
 73
     0
 90
        0
 40
-0.6
 41
-30.0
 62
     5
 63
     7
421
 16777215
 74
     1
 91
        4
 64
     7
 65
   257
 75
     1
175
     1
 42
1.0
 92
        0
 66
   257
 43
1.0
 76
     1
 77
     6
 78
     2
 67
     7
 79
     5
170
     0
171
     0
290
     0
174
     0
 93
        1
 44
0.0
173
     0
291
     0
 45
0.0
1001
ACAD
1000
AcDbSavedByObjectVersion
1070
     0
  0
VISUALSTYLE
  5
31
102
{ACAD_REACTORS
330
2A
102
}
330
2A
100
AcDbVisualStyle
  2
3D Hidden
 70
     6
 71
     1
 72
     2
 73
     2
 90
        0
 40
-0.6
 41
-30.0
 62
     5
 63
     7
421
 16777215
 74
     2
 91
        2
 64
     7
 65
   257
 75
     2
175
     1
 42
40.0
 92
        0
 66
   257
 43
1.0
 76
     1
 77
     6
 78
     2
 67
     7
 79
     3
170
     0
171
     0
290
     0
174
     0
 93
        1
 44
0.0
173
     0
291
     0
 45
0.0
1001
ACAD
1000
AcDbSavedByObjectVersion
1070
     0
  0
VISUALSTYLE
  5
30
102
{ACAD_REACTORS
330
2A
102
}
330
2A
100
AcDbVisualStyle
  2
3dWireframe
 70
     5
 71
     0
 72
     2
 73
     0
 90
        0
 40
-0.6
 41
-30.0
 62
     5
 63
     7
421
 16777215
 74
     1
 91
        4
 64
     7
 65
   257
 75
     1
175
     1
 42
1.0
 92
        0
 66
   257
 43
1.0
 76
     1
 77
     6
 78
     2
 67
     7
 79
     5
170
     0
171
     0
290
     0
174
     0
 93
        1
 44
0.0
173
     0
291
     0
 45
0.0
1001
ACAD
1000
AcDbSavedByObjectVersion
1070
     0
  0
VISUALSTYLE
  5
32
102
{ACAD_REACTORS
330
2A
102
}
330
2A
100
AcDbVisualStyle
  2
Basic
 70
     7
 71
     1
 72
     0
 73
     1
 90
        0
 40
-0.6
 41
-30.0
 62
     5
 63
     7
421
 16777215
 74
     0
 91
        4
 64
     7
 65
   257
 75
     1
175
     1
 42
1.0
 92
        8
 66
     7
 43
1.0
 76
     1
 77
     6
 78
     2
 67
     7
 79
     5
170
     0
171
     0
290
     0
174
     0
 93
        1
 44
0.0
173
     0
291
     1
 45
0.0
1001
ACAD
1000
AcDbSavedByObjectVersion
1070
     0
  0
VISUALSTYLE
  5
36
102
{ACAD_REACTORS
330
2A
102
}
330
2A
100
AcDbVisualStyle
  2
Brighten
 70
    12
 71
     2
 72
     2
 73
     0
 90
        0
 40
-0.6
 41
-30.0
 62
     5
 63
     7
421
 16777215
 74
     1
 91
        4
 64
     7
 65
   257
 75
     1
175
     1
 42
1.0
 92
        8
 66
     7
 43
1.0
 76
     1
 77
     6
 78
     2
 67
     7
 79
     5
170
     0
171
     0
290
     0
174
     0
 93
        1
 44
50.0
173
     0
291
     1
 45
0.0
1001
ACAD
1000
AcDbSavedByObjectVersion
1070
     0
  0
VISUALSTYLE
  5
3A
102
{ACAD_REACTORS
330
2A
102
}
330
2A
100
AcDbVisualStyle
  2
ColorChange
 70
    16
 71
     2
 72
     2
 73
     3
 90
        0
 40
-0.6
 41
-30.0
 62
     5
 63
     8
421
  8421504
 74
     1
 91
        4
 64
     7
 65
   257
 75
     1
175
     1
 42
1.0
 92
        8
 66
     8
424
  8421504
 43
1.0
 76
     1
 77
     6
 78
     2
 67
     7
 79
     5
170
     0
171
     0
290
     0
174
     0
 93
        1
 44
0.0
173
     0
291
     1
 45
0.0
1001
ACAD
1000
AcDbSavedByObjectVersion
1070
     0
  0
VISUALSTYLE
  5
34
102
{ACAD_REACTORS
330
2A
102
}
330
2A
100
AcDbVisualStyle
  2
Conceptual
 70
     9
 71
     3
 72
     2
 73
     0
 90
        0
 40
-0.6
 41
-30.0
 62
     5
 63
     7
421
 16777215
 74
     2
 91
        2
 64
     7
 65
   257
 75
     1
175
     1
 42
40.0
 92
        8
 66
     7
 43
1.0
 76
     1
 77
     6
 78
     2
 67
     7
 79
     3
170
     0
171
     0
290
     0
174
     0
 93
        1
 44
0.0
173
     0
291
     0
 45
0.0
1001
ACAD
1000
AcDbSavedByObjectVersion
1070
     0
  0
VISUALSTYLE
  5
35
102
{ACAD_REACTORS
330
2A
102
}
330
2A
100
AcDbVisualStyle
  2
Dim
 70
    11
 71
     2
 72
     2
 73
     0
 90
        0
 40
-0.6
 41
-30.0
 62
     5
 63
     7
421
 16777215
 74
     1
 91
        4
 64
     7
 65
   257
 75
     1
175
     1
 42
1.0
 92
        8
 66
     7
 43
1.0
 76
     1
 77
     6
 78
     2
 67
     7
 79
     5
170
     0
171
     0
290
     0
174
     0
 93
        1
 44
-50.0
173
     0
291
     1
 45
0.0
1001
ACAD
1000
AcDbSavedByObjectVersion
1070
     0
  0
VISUALSTYLE
  5
39
102
{ACAD_REACTORS
330
2A
102
}
330
2A
100
AcDbVisualStyle
  2
Facepattern
 70
    15
 71
     2
 72
     2
 73
     0
 90
        0
 40
-0.6
 41
-30.0
 62
     5
 63
     7
421
 16777215
 74
     1
 91
        4
 64
     7
 65
   257
 75
     1
175
     1
 42
1.0
 92
        8
 66
     7
 43
1.0
 76
     1
 77
     6
 78
     2
 67
     7
 79
     5
170
     0
171
     0
290
     0
174
     0
 93
        1
 44
0.0
173
     0
291
     1
 45
0.0
1001
ACAD
1000
AcDbSavedByObjectVersion
1070
     0
  0
VISUALSTYLE
  5
2B
102
{ACAD_REACTORS
330
2A
102
}
330
2A
100
AcDbVisualStyle
  2
Flat
 70
     0
 71
     2
 72
     1
 73
     1
 90
        2
 40
-0.6
 41
30.0
 62
     5
 63
     7
421
 16777215
 74
     0
 91
        4
 64
     7
 65
   257
 75
     1
175
     1
 42
1.0
 92
        8
 66
     7
 43
1.0
 76
     1
 77
     6
 78
     2
 67
     7
 79
     5
170
     0
171
     0
290
     0
174
     0
 93
       13
 44
0.0
173
     0
291
     1
 45
0.0
1001
ACAD
1000
AcDbSavedByObjectVersion
1070
     0
  0
VISUALSTYLE
  5
2C
102
{ACAD_REACTORS
330
2A
102
}
330
2A
100
AcDbVisualStyle
  2
FlatWithEdges
 70
     1
 71
     2
 72
     1
 73
     1
 90
        2
 40
-0.6
 41
30.0
 62
     5
 63
     7
421
 16777215
 74
     1
 91
        4
 64
     7
 65
   257
 75
     1
175
     1
 42
1.0
 92
        0
 66
   257
 43
1.0
 76
     1
 77
     6
 78
     2
 67
     7
 79
     5
170
     0
171
     0
290
     0
174
     0
 93
       13
 44
0.0
173
     0
291
     1
 45
0.0
1001
ACAD
1000
AcDbSavedByObjectVersion
1070
     0
  0
VISUALSTYLE
  5
2D
102
{ACAD_REACTORS
330
2A
102
}
330
2A
100
AcDbVisualStyle
  2
Gouraud
 70
     2
 71
     2
 72
     2
 73
     1
 90
        2
 40
-0.6
 41
30.0
 62
     5
 63
     7
421
 16777215
 74
     0
 91
        4
 64
     7
 65
   257
 75
     1
175
     1
 42
1.0
 92
        0
 66
     7
 43
1.0
 76
     1
 77
     6
 78
     2
 67
     7
 79
     5
170
     0
171
     0
290
     0
174
     0
 93
       13
 44
0.0
173
     0
291
     1
 45
0.0
1001
ACAD
1000
AcDbSavedByObjectVersion
1070
     0
  0
VISUALSTYLE
  5
2E
102
{ACAD_REACTORS
330
2A
102
}
330
2A
100
AcDbVisualStyle
  2
GouraudWithEdges
 70
     3
 71
     2
 72
     2
 73
     1
 90
        2
 40
-0.6
 41
30.0
 62
     5
 63
     7
421
 16777215
 74
     1
 91
        4
 64
     7
 65
   257
 75
     1
175
     1
 42
1.0
 92
        0
 66
   257
 43
1.0
 76
     1
 77
     6
 78
     2
 67
     7
 79
     5
170
     0
171
     0
290
     0
174
     0
 93
       13
 44
0.0
173
     0
291
     1
 45
0.0
1001
ACAD
1000
AcDbSavedByObjectVersion
1070
     0
  0
VISUALSTYLE
  5
38
102
{ACAD_REACTORS
330
2A
102
}
330
2A
100
AcDbVisualStyle
  2
Linepattern
 70
    14
 71
     2
 72
     2
 73
     0
 90
        0
 40
-0.6
 41
-30.0
 62
     5
 63
     7
421
 16777215
 74
     1
 91
        4
 64
     7
 65
   257
 75
     7
175
     7
 42
1.0
 92
        8
 66
     7
 43
1.0
 76
     1
 77
     6
 78
     2
 67
     7
 79
     5
170
     0
171
     0
290
     0
174
     0
 93
        1
 44
0.0
173
     0
291
     1
 45
0.0
1001
ACAD
1000
AcDbSavedByObjectVersion
1070
     0
  0
VISUALSTYLE
  5
33
102
{ACAD_REACTORS
330
2A
102
}
330
2A
100
AcDbVisualStyle
  2
Realistic
 70
     8
 71
     2
 72
     2
 73
     0
 90
        0
 40
-0.6
 41
-30.0
 62
     5
 63
     7
421
 16777215
 74
     1
 91
        0
 64
     7
 65
   257
 75
     1
175
     1
 42
1.0
 92
        8
 66
     8
424
  7895160
 43
1.0
 76
     1
 77
     6
 78
     2
 67
     7
 79
     5
170
     0
171
     0
290
     0
174
     0
 93
       13
 44
0.0
173
     0
291
     0
 45
0.0
1001
ACAD
1000
AcDbSavedByObjectVersion
1070
     0
  0
VISUALSTYLE
  5
37
102
{ACAD_REACTORS
330
2A
102
}
330
2A
100
AcDbVisualStyle
  2
Thicken
 70
    13
 71
     2
 72
     2
 73
     0
 90
        0
 40
-0.6
 41
-30.0
 62
     5
 63
     7
421
 16777215
 74
     1
 91
        4
 64
     7
 65
   257
 75
     1
175
     1
 42
1.0
 92
       12
 66
     7
 43
1.0
 76
     1
 77
     6
 78
     2
 67
     7
 79
     5
170
     0
171
     0
290
     0
174
     0
 93
        1
 44
0.0
173
     0
291
     1
 45
0.0
1001
ACAD
1000
AcDbSavedByObjectVersion
1070
     0
  0
ENDSEC
  0
EOF
